G04 #@! TF.GenerationSoftware,KiCad,Pcbnew,5.0.0-5.0.0*
G04 #@! TF.CreationDate,2018-10-25T16:06:32-04:00*
G04 #@! TF.ProjectId,l6203dualmotordrive,6C363230336475616C6D6F746F726472,rev?*
G04 #@! TF.SameCoordinates,Original*
G04 #@! TF.FileFunction,Copper,L1,Top,Signal*
G04 #@! TF.FilePolarity,Positive*
%FSLAX46Y46*%
G04 Gerber Fmt 4.6, Leading zero omitted, Abs format (unit mm)*
G04 Created by KiCad (PCBNEW 5.0.0-5.0.0) date Thu Oct 25 16:06:32 2018*
%MOMM*%
%LPD*%
G01*
G04 APERTURE LIST*
G04 #@! TA.AperFunction,SMDPad,CuDef*
%ADD10R,0.550000X1.500000*%
G04 #@! TD*
G04 #@! TA.AperFunction,SMDPad,CuDef*
%ADD11R,1.500000X0.550000*%
G04 #@! TD*
G04 #@! TA.AperFunction,ComponentPad*
%ADD12O,2.032000X3.048000*%
G04 #@! TD*
G04 #@! TA.AperFunction,ComponentPad*
%ADD13O,5.080000X10.160000*%
G04 #@! TD*
G04 #@! TA.AperFunction,SMDPad,CuDef*
%ADD14R,1.250000X1.000000*%
G04 #@! TD*
G04 #@! TA.AperFunction,SMDPad,CuDef*
%ADD15R,1.600000X1.000000*%
G04 #@! TD*
G04 #@! TA.AperFunction,ComponentPad*
%ADD16C,1.600000*%
G04 #@! TD*
G04 #@! TA.AperFunction,ComponentPad*
%ADD17O,1.600000X1.600000*%
G04 #@! TD*
G04 #@! TA.AperFunction,SMDPad,CuDef*
%ADD18R,1.000000X1.600000*%
G04 #@! TD*
G04 #@! TA.AperFunction,ComponentPad*
%ADD19R,1.600000X1.600000*%
G04 #@! TD*
G04 #@! TA.AperFunction,SMDPad,CuDef*
%ADD20R,1.000000X1.250000*%
G04 #@! TD*
G04 #@! TA.AperFunction,ComponentPad*
%ADD21C,2.400000*%
G04 #@! TD*
G04 #@! TA.AperFunction,ComponentPad*
%ADD22R,2.400000X2.400000*%
G04 #@! TD*
G04 #@! TA.AperFunction,ComponentPad*
%ADD23O,2.400000X2.400000*%
G04 #@! TD*
G04 #@! TA.AperFunction,ComponentPad*
%ADD24O,1.998980X1.998980*%
G04 #@! TD*
G04 #@! TA.AperFunction,ComponentPad*
%ADD25R,1.998980X1.998980*%
G04 #@! TD*
G04 #@! TA.AperFunction,SMDPad,CuDef*
%ADD26R,2.500000X1.000000*%
G04 #@! TD*
G04 #@! TA.AperFunction,ConnectorPad*
%ADD27C,0.787400*%
G04 #@! TD*
G04 #@! TA.AperFunction,SMDPad,CuDef*
%ADD28R,1.300000X0.700000*%
G04 #@! TD*
G04 #@! TA.AperFunction,SMDPad,CuDef*
%ADD29R,0.700000X1.300000*%
G04 #@! TD*
G04 #@! TA.AperFunction,SMDPad,CuDef*
%ADD30R,0.900000X1.700000*%
G04 #@! TD*
G04 #@! TA.AperFunction,ComponentPad*
%ADD31C,2.032000*%
G04 #@! TD*
G04 #@! TA.AperFunction,SMDPad,CuDef*
%ADD32R,0.450000X1.450000*%
G04 #@! TD*
G04 #@! TA.AperFunction,ComponentPad*
%ADD33O,1.700000X1.700000*%
G04 #@! TD*
G04 #@! TA.AperFunction,ComponentPad*
%ADD34R,1.700000X1.700000*%
G04 #@! TD*
G04 #@! TA.AperFunction,ComponentPad*
%ADD35O,1.800000X1.800000*%
G04 #@! TD*
G04 #@! TA.AperFunction,ComponentPad*
%ADD36R,1.800000X1.800000*%
G04 #@! TD*
G04 #@! TA.AperFunction,SMDPad,CuDef*
%ADD37R,1.220000X0.650000*%
G04 #@! TD*
G04 #@! TA.AperFunction,SMDPad,CuDef*
%ADD38R,0.650000X1.060000*%
G04 #@! TD*
G04 #@! TA.AperFunction,SMDPad,CuDef*
%ADD39R,0.600000X1.550000*%
G04 #@! TD*
G04 #@! TA.AperFunction,ComponentPad*
%ADD40C,1.400000*%
G04 #@! TD*
G04 #@! TA.AperFunction,BGAPad,CuDef*
%ADD41C,1.500000*%
G04 #@! TD*
G04 #@! TA.AperFunction,ViaPad*
%ADD42C,0.800000*%
G04 #@! TD*
G04 #@! TA.AperFunction,Conductor*
%ADD43C,0.381000*%
G04 #@! TD*
G04 #@! TA.AperFunction,Conductor*
%ADD44C,0.508000*%
G04 #@! TD*
G04 #@! TA.AperFunction,Conductor*
%ADD45C,0.762000*%
G04 #@! TD*
G04 #@! TA.AperFunction,Conductor*
%ADD46C,0.254000*%
G04 #@! TD*
G04 #@! TA.AperFunction,Conductor*
%ADD47C,1.270000*%
G04 #@! TD*
G04 #@! TA.AperFunction,Conductor*
%ADD48C,2.032000*%
G04 #@! TD*
G04 APERTURE END LIST*
D10*
G04 #@! TO.P,U1,44*
G04 #@! TO.N,/control/DISPCS*
X132144000Y-105806000D03*
G04 #@! TO.P,U1,43*
G04 #@! TO.N,/control/DSPRST*
X132944000Y-105806000D03*
G04 #@! TO.P,U1,42*
G04 #@! TO.N,PGC*
X133744000Y-105806000D03*
G04 #@! TO.P,U1,41*
G04 #@! TO.N,PGD*
X134544000Y-105806000D03*
G04 #@! TO.P,U1,40*
G04 #@! TO.N,+3V3*
X135344000Y-105806000D03*
G04 #@! TO.P,U1,39*
G04 #@! TO.N,GND*
X136144000Y-105806000D03*
G04 #@! TO.P,U1,38*
G04 #@! TO.N,/control/SCL*
X136944000Y-105806000D03*
G04 #@! TO.P,U1,37*
G04 #@! TO.N,/control/SDA*
X137744000Y-105806000D03*
G04 #@! TO.P,U1,36*
G04 #@! TO.N,/control/SCK*
X138544000Y-105806000D03*
G04 #@! TO.P,U1,35*
G04 #@! TO.N,/control/SDI*
X139344000Y-105806000D03*
G04 #@! TO.P,U1,34*
G04 #@! TO.N,/control/SDO*
X140144000Y-105806000D03*
D11*
G04 #@! TO.P,U1,33*
G04 #@! TO.N,/io/CANTX*
X141844000Y-107506000D03*
G04 #@! TO.P,U1,32*
G04 #@! TO.N,/io/CANRX*
X141844000Y-108306000D03*
G04 #@! TO.P,U1,31*
G04 #@! TO.N,Net-(U1-Pad31)*
X141844000Y-109106000D03*
G04 #@! TO.P,U1,30*
G04 #@! TO.N,Net-(U1-Pad30)*
X141844000Y-109906000D03*
G04 #@! TO.P,U1,29*
G04 #@! TO.N,GND*
X141844000Y-110706000D03*
G04 #@! TO.P,U1,28*
G04 #@! TO.N,+3V3*
X141844000Y-111506000D03*
G04 #@! TO.P,U1,27*
G04 #@! TO.N,Net-(U1-Pad27)*
X141844000Y-112306000D03*
G04 #@! TO.P,U1,26*
G04 #@! TO.N,Net-(U1-Pad26)*
X141844000Y-113106000D03*
G04 #@! TO.P,U1,25*
G04 #@! TO.N,/pressuresense/VREF*
X141844000Y-113906000D03*
G04 #@! TO.P,U1,24*
G04 #@! TO.N,/MC7*
X141844000Y-114706000D03*
G04 #@! TO.P,U1,23*
G04 #@! TO.N,Net-(U1-Pad23)*
X141844000Y-115506000D03*
D10*
G04 #@! TO.P,U1,22*
G04 #@! TO.N,Net-(U1-Pad22)*
X140144000Y-117206000D03*
G04 #@! TO.P,U1,21*
G04 #@! TO.N,/MC8*
X139344000Y-117206000D03*
G04 #@! TO.P,U1,20*
G04 #@! TO.N,/pressuresense/PRES2*
X138544000Y-117206000D03*
G04 #@! TO.P,U1,19*
G04 #@! TO.N,/pressuresense/PRES1*
X137744000Y-117206000D03*
G04 #@! TO.P,U1,18*
G04 #@! TO.N,Net-(R10-Pad1)*
X136944000Y-117206000D03*
G04 #@! TO.P,U1,17*
G04 #@! TO.N,Net-(C10-Pad1)*
X136144000Y-117206000D03*
G04 #@! TO.P,U1,16*
G04 #@! TO.N,GND*
X135344000Y-117206000D03*
G04 #@! TO.P,U1,15*
G04 #@! TO.N,/MC1*
X134544000Y-117206000D03*
G04 #@! TO.P,U1,14*
G04 #@! TO.N,/MC2*
X133744000Y-117206000D03*
G04 #@! TO.P,U1,13*
G04 #@! TO.N,Net-(U1-Pad13)*
X132944000Y-117206000D03*
G04 #@! TO.P,U1,12*
G04 #@! TO.N,Net-(U1-Pad12)*
X132144000Y-117206000D03*
D11*
G04 #@! TO.P,U1,11*
G04 #@! TO.N,/MC3*
X130444000Y-115506000D03*
G04 #@! TO.P,U1,10*
G04 #@! TO.N,/MC4*
X130444000Y-114706000D03*
G04 #@! TO.P,U1,9*
G04 #@! TO.N,/MC5*
X130444000Y-113906000D03*
G04 #@! TO.P,U1,8*
G04 #@! TO.N,/MC6*
X130444000Y-113106000D03*
G04 #@! TO.P,U1,7*
G04 #@! TO.N,Net-(C9-Pad1)*
X130444000Y-112306000D03*
G04 #@! TO.P,U1,6*
G04 #@! TO.N,GND*
X130444000Y-111506000D03*
G04 #@! TO.P,U1,5*
G04 #@! TO.N,/pressuresense/VREFPMW*
X130444000Y-110706000D03*
G04 #@! TO.P,U1,4*
G04 #@! TO.N,/control/ENCSW*
X130444000Y-109906000D03*
G04 #@! TO.P,U1,3*
G04 #@! TO.N,/control/ENCB*
X130444000Y-109106000D03*
G04 #@! TO.P,U1,2*
G04 #@! TO.N,/control/ENCA*
X130444000Y-108306000D03*
G04 #@! TO.P,U1,1*
G04 #@! TO.N,/io/CANSTBY*
X130444000Y-107506000D03*
G04 #@! TD*
D12*
G04 #@! TO.P,SW1,C*
G04 #@! TO.N,GND*
X107696000Y-122054000D03*
G04 #@! TO.P,SW1,B*
G04 #@! TO.N,Net-(R32-Pad1)*
X110196000Y-122054000D03*
G04 #@! TO.P,SW1,A*
G04 #@! TO.N,Net-(R31-Pad1)*
X105196000Y-122054000D03*
G04 #@! TO.P,SW1,S2*
G04 #@! TO.N,GND*
X110196000Y-107054000D03*
G04 #@! TO.P,SW1,S1*
G04 #@! TO.N,/control/ENCSW*
X105196000Y-107054000D03*
D13*
G04 #@! TO.P,SW1,*
G04 #@! TO.N,GND*
X101696000Y-114554000D03*
X113696000Y-114554000D03*
G04 #@! TD*
D14*
G04 #@! TO.P,C39,2*
G04 #@! TO.N,GND*
X99568000Y-104172000D03*
G04 #@! TO.P,C39,1*
G04 #@! TO.N,+5V*
X99568000Y-106172000D03*
G04 #@! TD*
D15*
G04 #@! TO.P,C1,2*
G04 #@! TO.N,GND*
X167132000Y-86844000D03*
G04 #@! TO.P,C1,1*
G04 #@! TO.N,Net-(C1-Pad1)*
X167132000Y-83844000D03*
G04 #@! TD*
G04 #@! TO.P,C2,1*
G04 #@! TO.N,Net-(C2-Pad1)*
X134112000Y-84098000D03*
G04 #@! TO.P,C2,2*
G04 #@! TO.N,GND*
X134112000Y-87098000D03*
G04 #@! TD*
D16*
G04 #@! TO.P,C3,1*
G04 #@! TO.N,Net-(C3-Pad1)*
X167640000Y-75692000D03*
D17*
G04 #@! TO.P,C3,2*
G04 #@! TO.N,Net-(C3-Pad2)*
X182640000Y-75692000D03*
G04 #@! TD*
G04 #@! TO.P,C4,2*
G04 #@! TO.N,Net-(C4-Pad2)*
X149112000Y-75438000D03*
D16*
G04 #@! TO.P,C4,1*
G04 #@! TO.N,Net-(C4-Pad1)*
X134112000Y-75438000D03*
G04 #@! TD*
D15*
G04 #@! TO.P,C5,2*
G04 #@! TO.N,Net-(C5-Pad2)*
X186182000Y-77446000D03*
G04 #@! TO.P,C5,1*
G04 #@! TO.N,Net-(C3-Pad2)*
X186182000Y-74446000D03*
G04 #@! TD*
D18*
G04 #@! TO.P,C6,1*
G04 #@! TO.N,Net-(C6-Pad1)*
X178792000Y-89154000D03*
G04 #@! TO.P,C6,2*
G04 #@! TO.N,Net-(C6-Pad2)*
X175792000Y-89154000D03*
G04 #@! TD*
D15*
G04 #@! TO.P,C7,2*
G04 #@! TO.N,Net-(C7-Pad2)*
X152400000Y-77954000D03*
G04 #@! TO.P,C7,1*
G04 #@! TO.N,Net-(C4-Pad2)*
X152400000Y-74954000D03*
G04 #@! TD*
D18*
G04 #@! TO.P,C8,1*
G04 #@! TO.N,Net-(C8-Pad1)*
X145518000Y-89408000D03*
G04 #@! TO.P,C8,2*
G04 #@! TO.N,Net-(C8-Pad2)*
X142518000Y-89408000D03*
G04 #@! TD*
D16*
G04 #@! TO.P,C9,2*
G04 #@! TO.N,GND*
X126238000Y-110784000D03*
D19*
G04 #@! TO.P,C9,1*
G04 #@! TO.N,Net-(C9-Pad1)*
X126238000Y-113284000D03*
G04 #@! TD*
D14*
G04 #@! TO.P,C11,1*
G04 #@! TO.N,+3V3*
X144018000Y-112252000D03*
G04 #@! TO.P,C11,2*
G04 #@! TO.N,GND*
X144018000Y-110252000D03*
G04 #@! TD*
D20*
G04 #@! TO.P,C12,2*
G04 #@! TO.N,GND*
X136636000Y-103632000D03*
G04 #@! TO.P,C12,1*
G04 #@! TO.N,+3V3*
X134636000Y-103632000D03*
G04 #@! TD*
G04 #@! TO.P,C13,2*
G04 #@! TO.N,Net-(C13-Pad2)*
X102092000Y-75184000D03*
G04 #@! TO.P,C13,1*
G04 #@! TO.N,GND*
X100092000Y-75184000D03*
G04 #@! TD*
G04 #@! TO.P,C14,1*
G04 #@! TO.N,Net-(C13-Pad2)*
X107172000Y-77216000D03*
G04 #@! TO.P,C14,2*
G04 #@! TO.N,Net-(C14-Pad2)*
X105172000Y-77216000D03*
G04 #@! TD*
G04 #@! TO.P,C15,2*
G04 #@! TO.N,GND*
X100092000Y-77216000D03*
G04 #@! TO.P,C15,1*
G04 #@! TO.N,Net-(C14-Pad2)*
X102092000Y-77216000D03*
G04 #@! TD*
G04 #@! TO.P,C16,1*
G04 #@! TO.N,GND*
X115078000Y-75184000D03*
G04 #@! TO.P,C16,2*
G04 #@! TO.N,Net-(C16-Pad2)*
X117078000Y-75184000D03*
G04 #@! TD*
G04 #@! TO.P,C17,2*
G04 #@! TO.N,Net-(C17-Pad2)*
X119650000Y-77216000D03*
G04 #@! TO.P,C17,1*
G04 #@! TO.N,Net-(C16-Pad2)*
X121650000Y-77216000D03*
G04 #@! TD*
G04 #@! TO.P,C18,2*
G04 #@! TO.N,GND*
X115078000Y-77216000D03*
G04 #@! TO.P,C18,1*
G04 #@! TO.N,Net-(C17-Pad2)*
X117078000Y-77216000D03*
G04 #@! TD*
D14*
G04 #@! TO.P,C19,2*
G04 #@! TO.N,GND*
X120396000Y-119110000D03*
G04 #@! TO.P,C19,1*
G04 #@! TO.N,/control/ENCA*
X120396000Y-117110000D03*
G04 #@! TD*
G04 #@! TO.P,C20,1*
G04 #@! TO.N,/control/ENCB*
X123698000Y-117110000D03*
G04 #@! TO.P,C20,2*
G04 #@! TO.N,GND*
X123698000Y-119110000D03*
G04 #@! TD*
G04 #@! TO.P,C21,2*
G04 #@! TO.N,GND*
X99060000Y-94250000D03*
G04 #@! TO.P,C21,1*
G04 #@! TO.N,Net-(C21-Pad1)*
X99060000Y-96250000D03*
G04 #@! TD*
D21*
G04 #@! TO.P,C22,2*
G04 #@! TO.N,GND*
X174498000Y-96600000D03*
D22*
G04 #@! TO.P,C22,1*
G04 #@! TO.N,VCC*
X174498000Y-101600000D03*
G04 #@! TD*
D16*
G04 #@! TO.P,C23,2*
G04 #@! TO.N,GND*
X176824000Y-120650000D03*
D19*
G04 #@! TO.P,C23,1*
G04 #@! TO.N,Net-(C23-Pad1)*
X179324000Y-120650000D03*
G04 #@! TD*
D15*
G04 #@! TO.P,C24,2*
G04 #@! TO.N,GND*
X161798000Y-105942000D03*
G04 #@! TO.P,C24,1*
G04 #@! TO.N,+6V*
X161798000Y-108942000D03*
G04 #@! TD*
D19*
G04 #@! TO.P,C25,1*
G04 #@! TO.N,+6V*
X170688000Y-120650000D03*
D16*
G04 #@! TO.P,C25,2*
G04 #@! TO.N,GND*
X173188000Y-120650000D03*
G04 #@! TD*
D15*
G04 #@! TO.P,C26,2*
G04 #@! TO.N,GND*
X109474000Y-99592000D03*
G04 #@! TO.P,C26,1*
G04 #@! TO.N,+6V*
X109474000Y-102592000D03*
G04 #@! TD*
D18*
G04 #@! TO.P,C27,1*
G04 #@! TO.N,+6V*
X105894000Y-92456000D03*
G04 #@! TO.P,C27,2*
G04 #@! TO.N,GND*
X102894000Y-92456000D03*
G04 #@! TD*
G04 #@! TO.P,C28,1*
G04 #@! TO.N,Net-(C28-Pad1)*
X105894000Y-94996000D03*
G04 #@! TO.P,C28,2*
G04 #@! TO.N,GND*
X102894000Y-94996000D03*
G04 #@! TD*
D15*
G04 #@! TO.P,C29,2*
G04 #@! TO.N,GND*
X154686000Y-105942000D03*
G04 #@! TO.P,C29,1*
G04 #@! TO.N,+3V3*
X154686000Y-108942000D03*
G04 #@! TD*
G04 #@! TO.P,C30,1*
G04 #@! TO.N,+5V*
X102362000Y-102592000D03*
G04 #@! TO.P,C30,2*
G04 #@! TO.N,GND*
X102362000Y-99592000D03*
G04 #@! TD*
D19*
G04 #@! TO.P,C31,1*
G04 #@! TO.N,VAA*
X98806000Y-88646000D03*
D16*
G04 #@! TO.P,C31,2*
G04 #@! TO.N,GND*
X98806000Y-91146000D03*
G04 #@! TD*
D15*
G04 #@! TO.P,C32,2*
G04 #@! TO.N,GND*
X144272000Y-122912000D03*
G04 #@! TO.P,C32,1*
G04 #@! TO.N,Net-(C32-Pad1)*
X144272000Y-119912000D03*
G04 #@! TD*
D20*
G04 #@! TO.P,C33,2*
G04 #@! TO.N,GND*
X125714000Y-98044000D03*
G04 #@! TO.P,C33,1*
G04 #@! TO.N,/pressuresense/PRES1*
X123714000Y-98044000D03*
G04 #@! TD*
G04 #@! TO.P,C34,1*
G04 #@! TO.N,/pressuresense/PRES2*
X124984000Y-100330000D03*
G04 #@! TO.P,C34,2*
G04 #@! TO.N,GND*
X126984000Y-100330000D03*
G04 #@! TD*
D15*
G04 #@! TO.P,C35,2*
G04 #@! TO.N,GND*
X114300000Y-94210000D03*
G04 #@! TO.P,C35,1*
G04 #@! TO.N,Net-(C35-Pad1)*
X114300000Y-91210000D03*
G04 #@! TD*
D18*
G04 #@! TO.P,C36,1*
G04 #@! TO.N,/pressuresense/VREF*
X113260000Y-88900000D03*
G04 #@! TO.P,C36,2*
G04 #@! TO.N,Net-(C36-Pad2)*
X110260000Y-88900000D03*
G04 #@! TD*
G04 #@! TO.P,C37,1*
G04 #@! TO.N,VCC*
X183666000Y-105410000D03*
G04 #@! TO.P,C37,2*
G04 #@! TO.N,GND*
X186666000Y-105410000D03*
G04 #@! TD*
D20*
G04 #@! TO.P,C38,1*
G04 #@! TO.N,+5V*
X95742000Y-109728000D03*
G04 #@! TO.P,C38,2*
G04 #@! TO.N,GND*
X93742000Y-109728000D03*
G04 #@! TD*
D14*
G04 #@! TO.P,C41,2*
G04 #@! TO.N,GND*
X155702000Y-121142000D03*
G04 #@! TO.P,C41,1*
G04 #@! TO.N,+3V3*
X155702000Y-119142000D03*
G04 #@! TD*
G04 #@! TO.P,C42,1*
G04 #@! TO.N,+3V3*
X117602000Y-113014000D03*
G04 #@! TO.P,C42,2*
G04 #@! TO.N,GND*
X117602000Y-111014000D03*
G04 #@! TD*
G04 #@! TO.P,C43,2*
G04 #@! TO.N,GND*
X99568000Y-100314000D03*
G04 #@! TO.P,C43,1*
G04 #@! TO.N,+3V3*
X99568000Y-98314000D03*
G04 #@! TD*
G04 #@! TO.P,C44,1*
G04 #@! TO.N,+3V3*
X120396000Y-91678000D03*
G04 #@! TO.P,C44,2*
G04 #@! TO.N,GND*
X120396000Y-89678000D03*
G04 #@! TD*
G04 #@! TO.P,C45,2*
G04 #@! TO.N,GND*
X102870000Y-79518000D03*
G04 #@! TO.P,C45,1*
G04 #@! TO.N,+3V3*
X102870000Y-81518000D03*
G04 #@! TD*
G04 #@! TO.P,C46,1*
G04 #@! TO.N,+3V3*
X117348000Y-81518000D03*
G04 #@! TO.P,C46,2*
G04 #@! TO.N,GND*
X117348000Y-79518000D03*
G04 #@! TD*
D23*
G04 #@! TO.P,D1,2*
G04 #@! TO.N,GND*
X162560000Y-85852000D03*
D22*
G04 #@! TO.P,D1,1*
G04 #@! TO.N,Net-(C3-Pad2)*
X162560000Y-73152000D03*
G04 #@! TD*
G04 #@! TO.P,D2,1*
G04 #@! TO.N,Net-(C6-Pad1)*
X165354000Y-67310000D03*
D23*
G04 #@! TO.P,D2,2*
G04 #@! TO.N,GND*
X178054000Y-67310000D03*
G04 #@! TD*
D22*
G04 #@! TO.P,D3,1*
G04 #@! TO.N,Net-(C4-Pad2)*
X146050000Y-67310000D03*
D23*
G04 #@! TO.P,D3,2*
G04 #@! TO.N,GND*
X133350000Y-67310000D03*
G04 #@! TD*
G04 #@! TO.P,D4,2*
G04 #@! TO.N,GND*
X156718000Y-85852000D03*
D22*
G04 #@! TO.P,D4,1*
G04 #@! TO.N,Net-(C8-Pad1)*
X156718000Y-73152000D03*
G04 #@! TD*
G04 #@! TO.P,j1,1*
G04 #@! TO.N,VCC*
X185166000Y-99060000D03*
D21*
G04 #@! TO.P,j1,2*
G04 #@! TO.N,GND*
X185166000Y-95560000D03*
G04 #@! TD*
D22*
G04 #@! TO.P,J1,1*
G04 #@! TO.N,Net-(C3-Pad2)*
X160782000Y-67818000D03*
D21*
G04 #@! TO.P,J1,2*
G04 #@! TO.N,Net-(C6-Pad1)*
X157282000Y-67818000D03*
G04 #@! TO.P,J1,4*
G04 #@! TO.N,Net-(C8-Pad1)*
X150282000Y-67818000D03*
G04 #@! TO.P,J1,3*
G04 #@! TO.N,Net-(C4-Pad2)*
X153782000Y-67818000D03*
G04 #@! TD*
G04 #@! TO.P,J2,3*
G04 #@! TO.N,Net-(J2-Pad3)*
X104252000Y-67564000D03*
G04 #@! TO.P,J2,4*
G04 #@! TO.N,Net-(J2-Pad4)*
X100752000Y-67564000D03*
G04 #@! TO.P,J2,2*
G04 #@! TO.N,Net-(J2-Pad2)*
X107752000Y-67564000D03*
D22*
G04 #@! TO.P,J2,1*
G04 #@! TO.N,Net-(J2-Pad1)*
X111252000Y-67564000D03*
G04 #@! TD*
G04 #@! TO.P,J3,1*
G04 #@! TO.N,Net-(J3-Pad1)*
X126238000Y-67564000D03*
D21*
G04 #@! TO.P,J3,2*
G04 #@! TO.N,Net-(J3-Pad2)*
X122738000Y-67564000D03*
G04 #@! TO.P,J3,4*
G04 #@! TO.N,Net-(J3-Pad4)*
X115738000Y-67564000D03*
G04 #@! TO.P,J3,3*
G04 #@! TO.N,Net-(J3-Pad3)*
X119238000Y-67564000D03*
G04 #@! TD*
D24*
G04 #@! TO.P,J4,3*
G04 #@! TO.N,GND*
X92456000Y-88392000D03*
G04 #@! TO.P,J4,2*
X92456000Y-85852000D03*
D25*
G04 #@! TO.P,J4,1*
G04 #@! TO.N,Net-(J4-Pad1)*
X92456000Y-83312000D03*
D24*
G04 #@! TO.P,J4,4*
G04 #@! TO.N,Net-(J4-Pad4)*
X92456000Y-90932000D03*
G04 #@! TD*
D26*
G04 #@! TO.P,L1,2*
G04 #@! TO.N,Net-(C10-Pad1)*
X137160000Y-119404000D03*
G04 #@! TO.P,L1,1*
G04 #@! TO.N,+3V3*
X137160000Y-122404000D03*
G04 #@! TD*
D27*
G04 #@! TO.P,P1,6*
G04 #@! TO.N,Net-(P1-Pad6)*
X162560000Y-118491000D03*
G04 #@! TO.P,P1,5*
G04 #@! TO.N,Net-(P1-Pad5)*
X162560000Y-119761000D03*
G04 #@! TO.P,P1,4*
G04 #@! TO.N,Net-(P1-Pad4)*
X161290000Y-118491000D03*
G04 #@! TO.P,P1,3*
G04 #@! TO.N,GND*
X161290000Y-119761000D03*
G04 #@! TO.P,P1,2*
G04 #@! TO.N,+3V3*
X160020000Y-118491000D03*
G04 #@! TO.P,P1,1*
G04 #@! TO.N,Net-(C32-Pad1)*
X160020000Y-119761000D03*
G04 #@! TD*
D28*
G04 #@! TO.P,R7,1*
G04 #@! TO.N,Net-(C32-Pad1)*
X141986000Y-120208000D03*
G04 #@! TO.P,R7,2*
G04 #@! TO.N,+3V3*
X141986000Y-122108000D03*
G04 #@! TD*
G04 #@! TO.P,R8,2*
G04 #@! TO.N,Net-(P1-Pad4)*
X147574000Y-113218000D03*
G04 #@! TO.P,R8,1*
G04 #@! TO.N,PGD*
X147574000Y-111318000D03*
G04 #@! TD*
G04 #@! TO.P,R9,1*
G04 #@! TO.N,PGC*
X149860000Y-111318000D03*
G04 #@! TO.P,R9,2*
G04 #@! TO.N,Net-(P1-Pad5)*
X149860000Y-113218000D03*
G04 #@! TD*
G04 #@! TO.P,R10,2*
G04 #@! TO.N,Net-(C32-Pad1)*
X139954000Y-121346000D03*
G04 #@! TO.P,R10,1*
G04 #@! TO.N,Net-(R10-Pad1)*
X139954000Y-119446000D03*
G04 #@! TD*
D29*
G04 #@! TO.P,R11,2*
G04 #@! TO.N,Net-(J2-Pad4)*
X101788000Y-73152000D03*
G04 #@! TO.P,R11,1*
G04 #@! TO.N,VAA*
X99888000Y-73152000D03*
G04 #@! TD*
G04 #@! TO.P,R12,1*
G04 #@! TO.N,GND*
X111948000Y-73152000D03*
G04 #@! TO.P,R12,2*
G04 #@! TO.N,Net-(J2-Pad1)*
X110048000Y-73152000D03*
G04 #@! TD*
G04 #@! TO.P,R13,1*
G04 #@! TO.N,VAA*
X114874000Y-73152000D03*
G04 #@! TO.P,R13,2*
G04 #@! TO.N,Net-(J3-Pad4)*
X116774000Y-73152000D03*
G04 #@! TD*
G04 #@! TO.P,R14,2*
G04 #@! TO.N,Net-(J3-Pad1)*
X124526000Y-73152000D03*
G04 #@! TO.P,R14,1*
G04 #@! TO.N,GND*
X126426000Y-73152000D03*
G04 #@! TD*
G04 #@! TO.P,R15,1*
G04 #@! TO.N,Net-(C13-Pad2)*
X105222000Y-73152000D03*
G04 #@! TO.P,R15,2*
G04 #@! TO.N,Net-(J2-Pad3)*
X107122000Y-73152000D03*
G04 #@! TD*
G04 #@! TO.P,R16,2*
G04 #@! TO.N,Net-(J2-Pad2)*
X107122000Y-75184000D03*
G04 #@! TO.P,R16,1*
G04 #@! TO.N,Net-(C14-Pad2)*
X105222000Y-75184000D03*
G04 #@! TD*
G04 #@! TO.P,R17,1*
G04 #@! TO.N,Net-(C16-Pad2)*
X119700000Y-73152000D03*
G04 #@! TO.P,R17,2*
G04 #@! TO.N,Net-(J3-Pad3)*
X121600000Y-73152000D03*
G04 #@! TD*
G04 #@! TO.P,R18,2*
G04 #@! TO.N,Net-(J3-Pad2)*
X121600000Y-75184000D03*
G04 #@! TO.P,R18,1*
G04 #@! TO.N,Net-(C17-Pad2)*
X119700000Y-75184000D03*
G04 #@! TD*
D28*
G04 #@! TO.P,R19,2*
G04 #@! TO.N,GND*
X100838000Y-79568000D03*
G04 #@! TO.P,R19,1*
G04 #@! TO.N,Net-(R19-Pad1)*
X100838000Y-81468000D03*
G04 #@! TD*
G04 #@! TO.P,R20,2*
G04 #@! TO.N,GND*
X115316000Y-79568000D03*
G04 #@! TO.P,R20,1*
G04 #@! TO.N,Net-(R20-Pad1)*
X115316000Y-81468000D03*
G04 #@! TD*
D29*
G04 #@! TO.P,R21,1*
G04 #@! TO.N,Net-(R21-Pad1)*
X108778000Y-84582000D03*
G04 #@! TO.P,R21,2*
G04 #@! TO.N,Net-(R19-Pad1)*
X110678000Y-84582000D03*
G04 #@! TD*
G04 #@! TO.P,R22,1*
G04 #@! TO.N,Net-(R22-Pad1)*
X123256000Y-84582000D03*
G04 #@! TO.P,R22,2*
G04 #@! TO.N,Net-(R20-Pad1)*
X125156000Y-84582000D03*
G04 #@! TD*
G04 #@! TO.P,R23,2*
G04 #@! TO.N,Net-(R23-Pad2)*
X110048000Y-77216000D03*
G04 #@! TO.P,R23,1*
G04 #@! TO.N,+3V3*
X111948000Y-77216000D03*
G04 #@! TD*
G04 #@! TO.P,R24,1*
G04 #@! TO.N,GND*
X111948000Y-75184000D03*
G04 #@! TO.P,R24,2*
G04 #@! TO.N,Net-(R23-Pad2)*
X110048000Y-75184000D03*
G04 #@! TD*
G04 #@! TO.P,R25,1*
G04 #@! TO.N,+3V3*
X126426000Y-77216000D03*
G04 #@! TO.P,R25,2*
G04 #@! TO.N,Net-(R25-Pad2)*
X124526000Y-77216000D03*
G04 #@! TD*
G04 #@! TO.P,R26,2*
G04 #@! TO.N,Net-(R25-Pad2)*
X124526000Y-75184000D03*
G04 #@! TO.P,R26,1*
G04 #@! TO.N,GND*
X126426000Y-75184000D03*
G04 #@! TD*
G04 #@! TO.P,R27,2*
G04 #@! TO.N,Net-(R21-Pad1)*
X108778000Y-80010000D03*
G04 #@! TO.P,R27,1*
G04 #@! TO.N,Net-(R27-Pad1)*
X110678000Y-80010000D03*
G04 #@! TD*
G04 #@! TO.P,R28,2*
G04 #@! TO.N,Net-(R22-Pad1)*
X123256000Y-80010000D03*
G04 #@! TO.P,R28,1*
G04 #@! TO.N,Net-(R28-Pad1)*
X125156000Y-80010000D03*
G04 #@! TD*
D28*
G04 #@! TO.P,R29,2*
G04 #@! TO.N,Net-(R19-Pad1)*
X102870000Y-85024000D03*
G04 #@! TO.P,R29,1*
G04 #@! TO.N,+3V3*
X102870000Y-83124000D03*
G04 #@! TD*
G04 #@! TO.P,R30,1*
G04 #@! TO.N,+3V3*
X117348000Y-83124000D03*
G04 #@! TO.P,R30,2*
G04 #@! TO.N,Net-(R20-Pad1)*
X117348000Y-85024000D03*
G04 #@! TD*
G04 #@! TO.P,R31,1*
G04 #@! TO.N,Net-(R31-Pad1)*
X120396000Y-123632000D03*
G04 #@! TO.P,R31,2*
G04 #@! TO.N,/control/ENCA*
X120396000Y-121732000D03*
G04 #@! TD*
G04 #@! TO.P,R32,2*
G04 #@! TO.N,/control/ENCB*
X123698000Y-121732000D03*
G04 #@! TO.P,R32,1*
G04 #@! TO.N,Net-(R32-Pad1)*
X123698000Y-123632000D03*
G04 #@! TD*
G04 #@! TO.P,R33,1*
G04 #@! TO.N,Net-(R31-Pad1)*
X113792000Y-123632000D03*
G04 #@! TO.P,R33,2*
G04 #@! TO.N,+3V3*
X113792000Y-121732000D03*
G04 #@! TD*
G04 #@! TO.P,R34,2*
G04 #@! TO.N,+3V3*
X117028000Y-120782000D03*
G04 #@! TO.P,R34,1*
G04 #@! TO.N,Net-(R32-Pad1)*
X117028000Y-122682000D03*
G04 #@! TD*
G04 #@! TO.P,R35,1*
G04 #@! TO.N,/control/ENCSW*
X119634000Y-111064000D03*
G04 #@! TO.P,R35,2*
G04 #@! TO.N,+3V3*
X119634000Y-112964000D03*
G04 #@! TD*
D30*
G04 #@! TO.P,R36,1*
G04 #@! TO.N,Net-(C21-Pad1)*
X95938000Y-94488000D03*
G04 #@! TO.P,R36,2*
G04 #@! TO.N,Net-(J4-Pad1)*
X93038000Y-94488000D03*
G04 #@! TD*
G04 #@! TO.P,R37,2*
G04 #@! TO.N,Net-(J4-Pad4)*
X93038000Y-98298000D03*
G04 #@! TO.P,R37,1*
G04 #@! TO.N,Net-(C21-Pad1)*
X95938000Y-98298000D03*
G04 #@! TD*
G04 #@! TO.P,R38,2*
G04 #@! TO.N,GND*
X186616000Y-108966000D03*
G04 #@! TO.P,R38,1*
G04 #@! TO.N,Net-(C23-Pad1)*
X183716000Y-108966000D03*
G04 #@! TD*
G04 #@! TO.P,R39,1*
G04 #@! TO.N,+6V*
X178128000Y-108966000D03*
G04 #@! TO.P,R39,2*
G04 #@! TO.N,Net-(C23-Pad1)*
X181028000Y-108966000D03*
G04 #@! TD*
D28*
G04 #@! TO.P,R40,2*
G04 #@! TO.N,Net-(R19-Pad1)*
X100838000Y-83124000D03*
G04 #@! TO.P,R40,1*
G04 #@! TO.N,/pressuresense/VREF*
X100838000Y-85024000D03*
G04 #@! TD*
G04 #@! TO.P,R41,1*
G04 #@! TO.N,/pressuresense/VREF*
X115316000Y-85024000D03*
G04 #@! TO.P,R41,2*
G04 #@! TO.N,Net-(R20-Pad1)*
X115316000Y-83124000D03*
G04 #@! TD*
D29*
G04 #@! TO.P,R42,1*
G04 #@! TO.N,/pressuresense/PRES1*
X110678000Y-82296000D03*
G04 #@! TO.P,R42,2*
G04 #@! TO.N,Net-(R27-Pad1)*
X108778000Y-82296000D03*
G04 #@! TD*
G04 #@! TO.P,R43,2*
G04 #@! TO.N,Net-(R28-Pad1)*
X123256000Y-82296000D03*
G04 #@! TO.P,R43,1*
G04 #@! TO.N,/pressuresense/PRES2*
X125156000Y-82296000D03*
G04 #@! TD*
G04 #@! TO.P,R44,2*
G04 #@! TO.N,/pressuresense/VREFPMW*
X112202000Y-93472000D03*
G04 #@! TO.P,R44,1*
G04 #@! TO.N,Net-(C36-Pad2)*
X110302000Y-93472000D03*
G04 #@! TD*
G04 #@! TO.P,R45,1*
G04 #@! TO.N,Net-(C35-Pad1)*
X112202000Y-91186000D03*
G04 #@! TO.P,R45,2*
G04 #@! TO.N,Net-(C36-Pad2)*
X110302000Y-91186000D03*
G04 #@! TD*
D31*
G04 #@! TO.P,U2,11*
G04 #@! TO.N,/MC6*
X169037000Y-81026000D03*
G04 #@! TO.P,U2,10*
G04 #@! TO.N,/MC7*
X170738800Y-86106000D03*
G04 #@! TO.P,U2,9*
G04 #@! TO.N,Net-(C1-Pad1)*
X172440600Y-81026000D03*
G04 #@! TO.P,U2,8*
G04 #@! TO.N,Net-(C6-Pad2)*
X174142400Y-86106000D03*
G04 #@! TO.P,U2,7*
G04 #@! TO.N,/MC2*
X175844200Y-81026000D03*
G04 #@! TO.P,U2,6*
G04 #@! TO.N,GND*
X177546000Y-86106000D03*
G04 #@! TO.P,U2,5*
G04 #@! TO.N,/MC1*
X179247800Y-81026000D03*
G04 #@! TO.P,U2,4*
G04 #@! TO.N,Net-(C5-Pad2)*
X180949600Y-86106000D03*
G04 #@! TO.P,U2,3*
G04 #@! TO.N,Net-(C3-Pad2)*
X182651400Y-81026000D03*
G04 #@! TO.P,U2,2*
G04 #@! TO.N,VCC*
X184353200Y-86106000D03*
G04 #@! TO.P,U2,1*
G04 #@! TO.N,Net-(C6-Pad1)*
X186055000Y-81026000D03*
G04 #@! TD*
G04 #@! TO.P,U3,1*
G04 #@! TO.N,Net-(C8-Pad1)*
X153035000Y-81026000D03*
G04 #@! TO.P,U3,2*
G04 #@! TO.N,VCC*
X151333200Y-86106000D03*
G04 #@! TO.P,U3,3*
G04 #@! TO.N,Net-(C4-Pad2)*
X149631400Y-81026000D03*
G04 #@! TO.P,U3,4*
G04 #@! TO.N,Net-(C7-Pad2)*
X147929600Y-86106000D03*
G04 #@! TO.P,U3,5*
G04 #@! TO.N,/MC3*
X146227800Y-81026000D03*
G04 #@! TO.P,U3,6*
G04 #@! TO.N,GND*
X144526000Y-86106000D03*
G04 #@! TO.P,U3,7*
G04 #@! TO.N,/MC4*
X142824200Y-81026000D03*
G04 #@! TO.P,U3,8*
G04 #@! TO.N,Net-(C8-Pad2)*
X141122400Y-86106000D03*
G04 #@! TO.P,U3,9*
G04 #@! TO.N,Net-(C2-Pad1)*
X139420600Y-81026000D03*
G04 #@! TO.P,U3,10*
G04 #@! TO.N,/MC8*
X137718800Y-86106000D03*
G04 #@! TO.P,U3,11*
G04 #@! TO.N,/MC5*
X136017000Y-81026000D03*
G04 #@! TD*
D32*
G04 #@! TO.P,U4,8*
G04 #@! TO.N,Net-(R27-Pad1)*
X106893000Y-84242000D03*
G04 #@! TO.P,U4,7*
G04 #@! TO.N,Net-(R21-Pad1)*
X106243000Y-84242000D03*
G04 #@! TO.P,U4,6*
G04 #@! TO.N,Net-(R19-Pad1)*
X105593000Y-84242000D03*
G04 #@! TO.P,U4,5*
G04 #@! TO.N,+3V3*
X104943000Y-84242000D03*
G04 #@! TO.P,U4,4*
G04 #@! TO.N,GND*
X104943000Y-79842000D03*
G04 #@! TO.P,U4,3*
G04 #@! TO.N,Net-(C14-Pad2)*
X105593000Y-79842000D03*
G04 #@! TO.P,U4,2*
G04 #@! TO.N,Net-(C13-Pad2)*
X106243000Y-79842000D03*
G04 #@! TO.P,U4,1*
G04 #@! TO.N,Net-(R23-Pad2)*
X106893000Y-79842000D03*
G04 #@! TD*
G04 #@! TO.P,U5,1*
G04 #@! TO.N,Net-(R25-Pad2)*
X121371000Y-79842000D03*
G04 #@! TO.P,U5,2*
G04 #@! TO.N,Net-(C16-Pad2)*
X120721000Y-79842000D03*
G04 #@! TO.P,U5,3*
G04 #@! TO.N,Net-(C17-Pad2)*
X120071000Y-79842000D03*
G04 #@! TO.P,U5,4*
G04 #@! TO.N,GND*
X119421000Y-79842000D03*
G04 #@! TO.P,U5,5*
G04 #@! TO.N,+3V3*
X119421000Y-84242000D03*
G04 #@! TO.P,U5,6*
G04 #@! TO.N,Net-(R20-Pad1)*
X120071000Y-84242000D03*
G04 #@! TO.P,U5,7*
G04 #@! TO.N,Net-(R22-Pad1)*
X120721000Y-84242000D03*
G04 #@! TO.P,U5,8*
G04 #@! TO.N,Net-(R28-Pad1)*
X121371000Y-84242000D03*
G04 #@! TD*
D33*
G04 #@! TO.P,U6,7*
G04 #@! TO.N,/control/DISPCS*
X142240000Y-93980000D03*
G04 #@! TO.P,U6,6*
G04 #@! TO.N,/control/SDO*
X139700000Y-93980000D03*
G04 #@! TO.P,U6,5*
G04 #@! TO.N,/control/DSPRST*
X137160000Y-93980000D03*
G04 #@! TO.P,U6,4*
G04 #@! TO.N,/control/SDI*
X134620000Y-93980000D03*
G04 #@! TO.P,U6,3*
G04 #@! TO.N,/control/SCK*
X132080000Y-93980000D03*
G04 #@! TO.P,U6,2*
G04 #@! TO.N,+3V3*
X129540000Y-93980000D03*
D34*
G04 #@! TO.P,U6,1*
G04 #@! TO.N,GND*
X127000000Y-93980000D03*
G04 #@! TD*
D33*
G04 #@! TO.P,U7,4*
G04 #@! TO.N,/control/SDA*
X138176000Y-97790000D03*
G04 #@! TO.P,U7,3*
G04 #@! TO.N,/control/SCL*
X135636000Y-97790000D03*
G04 #@! TO.P,U7,2*
G04 #@! TO.N,+3V3*
X133096000Y-97790000D03*
D34*
G04 #@! TO.P,U7,1*
G04 #@! TO.N,GND*
X130556000Y-97790000D03*
G04 #@! TD*
D35*
G04 #@! TO.P,U9,3*
G04 #@! TO.N,VCC*
X175768000Y-112522000D03*
G04 #@! TO.P,U9,2*
G04 #@! TO.N,+6V*
X178308000Y-112522000D03*
D36*
G04 #@! TO.P,U9,1*
G04 #@! TO.N,Net-(C23-Pad1)*
X180848000Y-112522000D03*
G04 #@! TD*
D37*
G04 #@! TO.P,U10,1*
G04 #@! TO.N,+6V*
X107228000Y-102550000D03*
G04 #@! TO.P,U10,2*
G04 #@! TO.N,GND*
X107228000Y-101600000D03*
G04 #@! TO.P,U10,3*
G04 #@! TO.N,+6V*
X107228000Y-100650000D03*
G04 #@! TO.P,U10,4*
G04 #@! TO.N,Net-(U10-Pad4)*
X104608000Y-100650000D03*
G04 #@! TO.P,U10,5*
G04 #@! TO.N,+5V*
X104608000Y-102550000D03*
G04 #@! TD*
G04 #@! TO.P,U11,5*
G04 #@! TO.N,+3V3*
X156932000Y-108900000D03*
G04 #@! TO.P,U11,4*
G04 #@! TO.N,Net-(U11-Pad4)*
X156932000Y-107000000D03*
G04 #@! TO.P,U11,3*
G04 #@! TO.N,+6V*
X159552000Y-107000000D03*
G04 #@! TO.P,U11,2*
G04 #@! TO.N,GND*
X159552000Y-107950000D03*
G04 #@! TO.P,U11,1*
G04 #@! TO.N,+6V*
X159552000Y-108900000D03*
G04 #@! TD*
D38*
G04 #@! TO.P,U12,1*
G04 #@! TO.N,+6V*
X103190000Y-90000000D03*
G04 #@! TO.P,U12,2*
G04 #@! TO.N,GND*
X104140000Y-90000000D03*
G04 #@! TO.P,U12,3*
G04 #@! TO.N,+6V*
X105090000Y-90000000D03*
G04 #@! TO.P,U12,4*
G04 #@! TO.N,Net-(C28-Pad1)*
X105090000Y-87800000D03*
G04 #@! TO.P,U12,5*
G04 #@! TO.N,VAA*
X103190000Y-87800000D03*
G04 #@! TD*
G04 #@! TO.P,U13,5*
G04 #@! TO.N,+3V3*
X118552000Y-91778000D03*
G04 #@! TO.P,U13,4*
G04 #@! TO.N,/pressuresense/VREF*
X116652000Y-91778000D03*
G04 #@! TO.P,U13,3*
G04 #@! TO.N,Net-(C35-Pad1)*
X116652000Y-89578000D03*
G04 #@! TO.P,U13,2*
G04 #@! TO.N,GND*
X117602000Y-89578000D03*
G04 #@! TO.P,U13,1*
G04 #@! TO.N,/pressuresense/VREF*
X118552000Y-89578000D03*
G04 #@! TD*
D39*
G04 #@! TO.P,U8,8*
G04 #@! TO.N,/io/CANSTBY*
X92837000Y-101948000D03*
G04 #@! TO.P,U8,7*
G04 #@! TO.N,Net-(J4-Pad4)*
X94107000Y-101948000D03*
G04 #@! TO.P,U8,6*
G04 #@! TO.N,Net-(J4-Pad1)*
X95377000Y-101948000D03*
G04 #@! TO.P,U8,5*
G04 #@! TO.N,+3V3*
X96647000Y-101948000D03*
G04 #@! TO.P,U8,4*
G04 #@! TO.N,/io/CANRX*
X96647000Y-107348000D03*
G04 #@! TO.P,U8,3*
G04 #@! TO.N,+5V*
X95377000Y-107348000D03*
G04 #@! TO.P,U8,2*
G04 #@! TO.N,GND*
X94107000Y-107348000D03*
G04 #@! TO.P,U8,1*
G04 #@! TO.N,/io/CANTX*
X92837000Y-107348000D03*
G04 #@! TD*
D14*
G04 #@! TO.P,C10,2*
G04 #@! TO.N,GND*
X134620000Y-119396000D03*
G04 #@! TO.P,C10,1*
G04 #@! TO.N,Net-(C10-Pad1)*
X134620000Y-121396000D03*
G04 #@! TD*
D40*
G04 #@! TO.P,REF\002A\002A,1*
G04 #@! TO.N,GND*
X169164000Y-113792000D03*
X169164000Y-111252000D03*
G04 #@! TD*
G04 #@! TO.P,REF\002A\002A,1*
G04 #@! TO.N,GND*
X92456000Y-114554000D03*
X94996000Y-114554000D03*
G04 #@! TD*
D41*
G04 #@! TO.P,6V,1*
G04 #@! TO.N,+6V*
X167386000Y-118872000D03*
G04 #@! TD*
G04 #@! TO.P,DC+,1*
G04 #@! TO.N,VCC*
X171704000Y-108204000D03*
G04 #@! TD*
G04 #@! TO.P,3.3V,1*
G04 #@! TO.N,+3V3*
X155956000Y-111506000D03*
G04 #@! TD*
G04 #@! TO.P,5V,1*
G04 #@! TO.N,+5V*
X97536000Y-109220000D03*
G04 #@! TD*
G04 #@! TO.P,STRAIN+,1*
G04 #@! TO.N,VAA*
X97028000Y-80518000D03*
G04 #@! TD*
G04 #@! TO.P,REF\002A\002A,1*
G04 #@! TO.N,/pressuresense/VREF*
X108458000Y-87884000D03*
G04 #@! TD*
D42*
G04 #@! TO.N,GND*
X135382000Y-115824000D03*
X140208000Y-110236000D03*
X136652000Y-102362000D03*
X118618000Y-78486000D03*
X104140000Y-78486000D03*
X127762000Y-74168000D03*
X158242000Y-105942000D03*
X156718000Y-105942000D03*
X159766000Y-105942000D03*
X158242000Y-107950000D03*
X158242000Y-109220000D03*
X156039802Y-107950000D03*
X158242000Y-106934000D03*
X157226000Y-107950000D03*
X105918000Y-101600000D03*
X105918000Y-102870000D03*
X105918000Y-100584000D03*
X105918000Y-99592000D03*
X104648000Y-99592000D03*
X104648000Y-101600000D03*
X107188000Y-99592000D03*
X118110000Y-87884000D03*
X167132000Y-88392000D03*
X134112000Y-88392000D03*
X154432000Y-121158000D03*
X131826000Y-110998000D03*
X127000000Y-98806000D03*
X127000000Y-98806000D03*
X122174000Y-119126000D03*
G04 #@! TO.N,+3V3*
X119344000Y-82550000D03*
X126492000Y-78740000D03*
X113030000Y-77216000D03*
X104866000Y-82550000D03*
X119380000Y-92964000D03*
X119380000Y-85852000D03*
X107442000Y-98390000D03*
X153381000Y-108966000D03*
X119634000Y-114554000D03*
X137668000Y-121158000D03*
X132585500Y-121412000D03*
X126238000Y-119888000D03*
X134872933Y-108967067D03*
X136398000Y-107442000D03*
G04 #@! TO.N,+6V*
X113538000Y-106172000D03*
X113538000Y-102616000D03*
G04 #@! TO.N,Net-(C32-Pad1)*
X147320000Y-119380000D03*
X144526000Y-118110000D03*
G04 #@! TO.N,/pressuresense/PRES1*
X137616997Y-115316000D03*
X122174000Y-98298000D03*
X132334000Y-119380000D03*
X124453933Y-115830067D03*
G04 #@! TO.N,/pressuresense/PRES2*
X138617000Y-115316000D03*
X123698000Y-99822000D03*
X133096000Y-118618000D03*
X122936000Y-111252000D03*
G04 #@! TO.N,/pressuresense/VREF*
X141986000Y-118618000D03*
X117348000Y-100330000D03*
X132585500Y-120347859D03*
X126104933Y-118243067D03*
G04 #@! TO.N,/MC7*
X144018000Y-114046000D03*
X152146000Y-110998000D03*
G04 #@! TO.N,/MC8*
X150876000Y-109982000D03*
X139192000Y-111760000D03*
G04 #@! TO.N,PGD*
X140208000Y-108204000D03*
X144780000Y-108204000D03*
G04 #@! TO.N,PGC*
X139700000Y-109220000D03*
X149098000Y-109220000D03*
G04 #@! TO.N,/control/ENCSW*
X122936000Y-109474000D03*
X122936000Y-106934000D03*
G04 #@! TO.N,/pressuresense/VREFPMW*
X124206000Y-109982000D03*
X124206000Y-102616000D03*
G04 #@! TO.N,/control/DISPCS*
X138176000Y-90678000D03*
G04 #@! TO.N,/io/CANTX*
X143764000Y-106680000D03*
X127000000Y-106680000D03*
G04 #@! TO.N,/io/CANRX*
X144780000Y-105918000D03*
X127000000Y-105410000D03*
G04 #@! TO.N,/MC1*
X134620000Y-114554000D03*
X168910000Y-105918000D03*
G04 #@! TO.N,/MC2*
X133604000Y-113792000D03*
X167640000Y-105918000D03*
G04 #@! TO.N,/MC3*
X129286000Y-88392000D03*
X122428000Y-88392000D03*
X127000000Y-101854000D03*
X127762000Y-115570000D03*
G04 #@! TO.N,/MC4*
X123541398Y-112776000D03*
X125476000Y-102616000D03*
G04 #@! TO.N,/MC6*
X132073933Y-112515933D03*
X166116000Y-102616000D03*
G04 #@! TD*
D43*
G04 #@! TO.N,GND*
X119421000Y-79842000D02*
X118704000Y-79842000D01*
X118704000Y-79842000D02*
X118364000Y-79502000D01*
X118364000Y-79502000D02*
X117348000Y-79502000D01*
X115316000Y-79568000D02*
X117282000Y-79568000D01*
X115316000Y-79568000D02*
X115316000Y-79248000D01*
X100838000Y-79568000D02*
X102804000Y-79568000D01*
X102804000Y-79568000D02*
X102870000Y-79502000D01*
X104337000Y-79842000D02*
X104140000Y-79645000D01*
X104943000Y-79842000D02*
X104337000Y-79842000D01*
X104140000Y-79645000D02*
X103267000Y-79645000D01*
X103267000Y-79645000D02*
X103124000Y-79502000D01*
X100838000Y-79568000D02*
X100838000Y-78994000D01*
X100838000Y-78994000D02*
X100076000Y-78232000D01*
X100076000Y-78232000D02*
X100076000Y-77216000D01*
X115316000Y-79568000D02*
X115316000Y-78837000D01*
X115316000Y-78837000D02*
X115316000Y-77470000D01*
X111948000Y-73152000D02*
X111948000Y-75118000D01*
X111948000Y-75118000D02*
X112014000Y-75184000D01*
X115078000Y-76210000D02*
X115062000Y-76194000D01*
X115078000Y-77216000D02*
X115078000Y-76210000D01*
X115062000Y-76194000D02*
X115062000Y-75184000D01*
X100092000Y-76210000D02*
X100076000Y-76194000D01*
X100092000Y-77216000D02*
X100092000Y-76210000D01*
X100076000Y-76194000D02*
X100076000Y-75184000D01*
D44*
X102894000Y-94996000D02*
X102894000Y-92480000D01*
X102894000Y-92480000D02*
X102870000Y-92456000D01*
X104140000Y-90000000D02*
X104140000Y-91948000D01*
X104140000Y-91948000D02*
X104140000Y-92202000D01*
X104140000Y-92202000D02*
X103886000Y-92456000D01*
X103886000Y-92456000D02*
X103124000Y-92456000D01*
D43*
X94107000Y-107348000D02*
X94107000Y-108585000D01*
X94107000Y-108585000D02*
X93980000Y-108712000D01*
X93980000Y-108712000D02*
X93980000Y-109220000D01*
D44*
X99060000Y-93242000D02*
X98806000Y-92988000D01*
X99060000Y-94250000D02*
X99060000Y-93242000D01*
X98806000Y-92988000D02*
X98806000Y-92456000D01*
X102894000Y-92456000D02*
X98806000Y-92456000D01*
X98806000Y-92456000D02*
X98806000Y-91186000D01*
D43*
X130444000Y-111506000D02*
X127000000Y-111506000D01*
X127000000Y-111506000D02*
X126238000Y-110744000D01*
X136144000Y-105806000D02*
X136144000Y-104140000D01*
X136144000Y-104140000D02*
X136652000Y-103632000D01*
X142975000Y-110706000D02*
X143699000Y-109982000D01*
X141844000Y-110706000D02*
X142975000Y-110706000D01*
X143699000Y-109982000D02*
X143764000Y-109982000D01*
X135344000Y-118337000D02*
X134620000Y-119061000D01*
X135344000Y-117206000D02*
X135344000Y-118337000D01*
X134620000Y-119061000D02*
X134620000Y-119126000D01*
D45*
X186666000Y-106972000D02*
X186690000Y-106996000D01*
X186666000Y-105410000D02*
X186666000Y-106972000D01*
X186690000Y-106996000D02*
X186690000Y-108966000D01*
X177014000Y-120420000D02*
X176784000Y-120650000D01*
X102362000Y-100384802D02*
X103577198Y-101600000D01*
X102362000Y-99592000D02*
X102362000Y-100384802D01*
X102386000Y-99592000D02*
X102362000Y-99568000D01*
X105918000Y-99592000D02*
X105918000Y-99592000D01*
X105918000Y-101600000D02*
X105918000Y-101600000D01*
X109474000Y-99592000D02*
X107188000Y-99592000D01*
X105918000Y-101600000D02*
X107188000Y-101600000D01*
X103577198Y-101600000D02*
X104648000Y-101600000D01*
X105918000Y-101600000D02*
X105918000Y-102870000D01*
X94107000Y-105811000D02*
X95778000Y-104140000D01*
X94107000Y-107348000D02*
X94107000Y-105811000D01*
X95778000Y-104140000D02*
X99568000Y-104140000D01*
X99568000Y-104172000D02*
X99568000Y-102910000D01*
X99568000Y-102910000D02*
X99568000Y-100838000D01*
X99568000Y-100838000D02*
X100838000Y-99568000D01*
X100838000Y-99568000D02*
X102362000Y-99568000D01*
X161774000Y-105942000D02*
X161798000Y-105918000D01*
X158242000Y-105942000D02*
X158242000Y-105942000D01*
X158242000Y-105942000D02*
X159766000Y-105942000D01*
X154686000Y-105942000D02*
X156718000Y-105942000D01*
X159552000Y-107950000D02*
X158242000Y-107950000D01*
X158242000Y-106172000D02*
X158242000Y-106934000D01*
X158242000Y-107950000D02*
X158242000Y-109220000D01*
X156039802Y-107950000D02*
X156039802Y-107950000D01*
X158242000Y-107950000D02*
X157226000Y-107950000D01*
X154686000Y-106596198D02*
X154686000Y-105918000D01*
D44*
X127016000Y-93964000D02*
X127000000Y-93980000D01*
D43*
X121402000Y-119110000D02*
X121418000Y-119126000D01*
X120396000Y-119110000D02*
X121402000Y-119110000D01*
X121418000Y-119126000D02*
X122174000Y-119126000D01*
D44*
X127000000Y-98552000D02*
X127000000Y-98806000D01*
X127000000Y-98552000D02*
X127000000Y-98298000D01*
X127000000Y-98298000D02*
X126746000Y-98044000D01*
X126746000Y-98044000D02*
X125984000Y-98044000D01*
D46*
X159476937Y-123180451D02*
X156454451Y-123180451D01*
X160264451Y-122392937D02*
X159476937Y-123180451D01*
X161290000Y-119761000D02*
X160264451Y-120786549D01*
X160264451Y-120786549D02*
X160264451Y-122392937D01*
X156454451Y-123180451D02*
X155702000Y-122428000D01*
X155702000Y-122428000D02*
X155702000Y-121158000D01*
D44*
X118110000Y-87884000D02*
X119888000Y-87884000D01*
X119888000Y-87884000D02*
X120396000Y-88392000D01*
X120396000Y-88392000D02*
X120396000Y-89662000D01*
X114300000Y-94210000D02*
X120420000Y-94210000D01*
X120420000Y-94210000D02*
X121666000Y-92964000D01*
X121666000Y-92964000D02*
X121666000Y-89916000D01*
X121666000Y-89916000D02*
X121412000Y-89662000D01*
X121412000Y-89662000D02*
X120650000Y-89662000D01*
D43*
X133614000Y-119396000D02*
X133376000Y-119634000D01*
X134620000Y-119396000D02*
X133614000Y-119396000D01*
X133376000Y-121979902D02*
X135094098Y-123698000D01*
X133376000Y-119634000D02*
X133376000Y-121979902D01*
X135094098Y-123698000D02*
X141986000Y-123698000D01*
X141986000Y-123698000D02*
X142748000Y-122936000D01*
X142748000Y-122936000D02*
X144272000Y-122936000D01*
X135344000Y-117206000D02*
X135344000Y-115862000D01*
X135344000Y-115862000D02*
X135382000Y-115824000D01*
X141844000Y-110706000D02*
X140678000Y-110706000D01*
X140678000Y-110706000D02*
X140208000Y-110236000D01*
D44*
X136636000Y-103632000D02*
X136636000Y-102378000D01*
X136636000Y-102378000D02*
X136652000Y-102362000D01*
X111948000Y-75184000D02*
X112806000Y-75184000D01*
X112806000Y-75184000D02*
X115062000Y-75184000D01*
X118704000Y-79842000D02*
X118704000Y-78572000D01*
X118704000Y-78572000D02*
X118618000Y-78486000D01*
X104140000Y-79645000D02*
X104140000Y-78486000D01*
X126426000Y-74168000D02*
X127762000Y-74168000D01*
D43*
X126426000Y-74168000D02*
X126426000Y-73218000D01*
X126426000Y-75184000D02*
X126426000Y-74168000D01*
D45*
X186666000Y-105410000D02*
X186666000Y-101116000D01*
X186666000Y-101116000D02*
X187198000Y-100584000D01*
X187198000Y-100584000D02*
X187198000Y-97536000D01*
X187198000Y-97536000D02*
X185166000Y-95504000D01*
X158242000Y-105942000D02*
X158242000Y-106172000D01*
X156718000Y-105942000D02*
X158242000Y-105942000D01*
X159766000Y-105942000D02*
X161774000Y-105942000D01*
X158242000Y-107950000D02*
X158242000Y-107950000D01*
X158242000Y-109220000D02*
X158242000Y-109220000D01*
X156039802Y-107950000D02*
X154686000Y-106596198D01*
X158242000Y-106934000D02*
X158242000Y-107950000D01*
X157226000Y-107950000D02*
X156039802Y-107950000D01*
X105918000Y-101600000D02*
X105918000Y-100584000D01*
X105918000Y-102870000D02*
X105918000Y-102870000D01*
X105918000Y-100584000D02*
X105918000Y-99592000D01*
X105918000Y-99592000D02*
X104648000Y-99592000D01*
X104648000Y-99592000D02*
X102386000Y-99592000D01*
X104648000Y-101600000D02*
X105918000Y-101600000D01*
X107188000Y-99592000D02*
X105918000Y-99592000D01*
D44*
X117602000Y-89578000D02*
X117602000Y-88392000D01*
X117602000Y-88392000D02*
X118110000Y-87884000D01*
X167132000Y-86844000D02*
X167132000Y-88392000D01*
X134112000Y-87098000D02*
X134112000Y-88392000D01*
D45*
X116215000Y-111014000D02*
X115215000Y-112014000D01*
X117602000Y-111014000D02*
X116215000Y-111014000D01*
X115215000Y-112014000D02*
X115062000Y-112014000D01*
D46*
X155702000Y-121142000D02*
X154448000Y-121142000D01*
X154448000Y-121142000D02*
X154432000Y-121158000D01*
D44*
X130444000Y-111506000D02*
X131318000Y-111506000D01*
X131318000Y-111506000D02*
X131826000Y-110998000D01*
X127000000Y-98806000D02*
X127000000Y-100330000D01*
X127000000Y-98806000D02*
X127000000Y-98806000D01*
D43*
X122174000Y-119126000D02*
X123698000Y-119126000D01*
D44*
G04 #@! TO.N,Net-(C1-Pad1)*
X167132000Y-83844000D02*
X169648000Y-83844000D01*
X169648000Y-83844000D02*
X172466000Y-81026000D01*
G04 #@! TO.N,Net-(C2-Pad1)*
X135420000Y-84098000D02*
X135444000Y-84074000D01*
X134112000Y-84098000D02*
X135420000Y-84098000D01*
X135444000Y-84074000D02*
X136398000Y-84074000D01*
X136398000Y-84074000D02*
X139446000Y-81026000D01*
D47*
G04 #@! TO.N,Net-(C3-Pad2)*
X182651400Y-75717400D02*
X182626000Y-75692000D01*
D44*
X182904000Y-74446000D02*
X182640000Y-74182000D01*
X186182000Y-74446000D02*
X182904000Y-74446000D01*
D48*
X162560000Y-73152000D02*
X162560000Y-72136000D01*
X162560000Y-72136000D02*
X160782000Y-70358000D01*
X160782000Y-70358000D02*
X160782000Y-67564000D01*
X182651400Y-81026000D02*
X182651400Y-75717400D01*
X182640000Y-75706000D02*
X182640000Y-74182000D01*
X182651400Y-75717400D02*
X182640000Y-75706000D01*
X182640000Y-74182000D02*
X182640000Y-73420000D01*
X179578000Y-70358000D02*
X160782000Y-70358000D01*
X182640000Y-73420000D02*
X179578000Y-70358000D01*
D44*
G04 #@! TO.N,Net-(C4-Pad2)*
X151092000Y-74954000D02*
X151068000Y-74930000D01*
X152400000Y-74954000D02*
X151092000Y-74954000D01*
X151068000Y-74930000D02*
X149352000Y-74930000D01*
D48*
X149631400Y-79589160D02*
X149098000Y-79055760D01*
X149631400Y-81026000D02*
X149631400Y-79589160D01*
X149098000Y-79055760D02*
X149098000Y-75438000D01*
X149112000Y-75438000D02*
X146050000Y-72376000D01*
X146050000Y-72376000D02*
X146050000Y-67310000D01*
X149112000Y-74306630D02*
X153670000Y-69748630D01*
X149112000Y-75438000D02*
X149112000Y-74306630D01*
X153670000Y-69748630D02*
X153670000Y-67818000D01*
D44*
G04 #@! TO.N,Net-(C5-Pad2)*
X187490000Y-77446000D02*
X187960000Y-77916000D01*
X186182000Y-77446000D02*
X187490000Y-77446000D01*
X187960000Y-77916000D02*
X187960000Y-81788000D01*
X187960000Y-81788000D02*
X185674000Y-84074000D01*
X185674000Y-84074000D02*
X182880000Y-84074000D01*
X182880000Y-84074000D02*
X180848000Y-86106000D01*
X180848000Y-86106000D02*
X181102000Y-86106000D01*
G04 #@! TO.N,Net-(C6-Pad1)*
X183642000Y-83312000D02*
X180086000Y-83312000D01*
X180086000Y-83312000D02*
X179324000Y-84074000D01*
X179324000Y-84074000D02*
X179324000Y-87122000D01*
X179324000Y-87122000D02*
X178816000Y-87630000D01*
X178816000Y-87630000D02*
X178816000Y-89154000D01*
X183642000Y-83312000D02*
X183896000Y-83312000D01*
X183896000Y-83312000D02*
X186182000Y-81026000D01*
G04 #@! TO.N,Net-(C6-Pad2)*
X175792000Y-87846000D02*
X174052000Y-86106000D01*
X175792000Y-89154000D02*
X175792000Y-87846000D01*
X174052000Y-86106000D02*
X174244000Y-86106000D01*
G04 #@! TO.N,Net-(C7-Pad2)*
X153708000Y-77954000D02*
X155256000Y-79502000D01*
X152400000Y-77954000D02*
X153708000Y-77954000D01*
X155256000Y-79502000D02*
X155256000Y-82488000D01*
X155256000Y-82488000D02*
X154178000Y-83566000D01*
X154178000Y-83566000D02*
X150368000Y-83566000D01*
X150368000Y-83566000D02*
X147828000Y-86106000D01*
G04 #@! TO.N,Net-(C8-Pad1)*
X145518000Y-88100000D02*
X146304000Y-87314000D01*
X145518000Y-89408000D02*
X145518000Y-88100000D01*
X146304000Y-87314000D02*
X146304000Y-85090000D01*
X146304000Y-85090000D02*
X148590000Y-82804000D01*
X148590000Y-82804000D02*
X151130000Y-82804000D01*
X151130000Y-82804000D02*
X152908000Y-81026000D01*
G04 #@! TO.N,Net-(C8-Pad2)*
X142518000Y-89408000D02*
X142518000Y-87654000D01*
X142518000Y-87654000D02*
X141224000Y-86360000D01*
X141224000Y-86360000D02*
X141224000Y-86106000D01*
D43*
G04 #@! TO.N,Net-(C9-Pad1)*
X130444000Y-112306000D02*
X127216000Y-112306000D01*
X127216000Y-112306000D02*
X126238000Y-113284000D01*
G04 #@! TO.N,+3V3*
X117631000Y-83058000D02*
X117602000Y-83058000D01*
X117348000Y-81518000D02*
X117348000Y-83058000D01*
X102870000Y-81518000D02*
X102870000Y-82399000D01*
X102870000Y-82399000D02*
X102870000Y-83058000D01*
X104943000Y-84242000D02*
X104308000Y-84242000D01*
X104308000Y-84242000D02*
X104140000Y-84074000D01*
X104140000Y-84074000D02*
X104140000Y-83566000D01*
X104140000Y-83566000D02*
X103632000Y-83058000D01*
X103632000Y-83058000D02*
X102870000Y-83058000D01*
X119421000Y-84242000D02*
X118786000Y-84242000D01*
X118786000Y-84242000D02*
X118618000Y-84074000D01*
X118618000Y-84074000D02*
X118618000Y-83312000D01*
X118618000Y-83312000D02*
X118364000Y-83058000D01*
X118364000Y-83058000D02*
X117348000Y-83058000D01*
X135344000Y-104675000D02*
X134620000Y-103951000D01*
X135344000Y-105806000D02*
X135344000Y-104675000D01*
X134620000Y-103951000D02*
X134620000Y-103886000D01*
X141844000Y-111506000D02*
X143256000Y-111506000D01*
X143256000Y-111506000D02*
X144018000Y-112268000D01*
D45*
X154686000Y-108942000D02*
X156948000Y-108942000D01*
X156948000Y-108942000D02*
X156972000Y-108966000D01*
D43*
X133096000Y-97536000D02*
X133096000Y-97790000D01*
D44*
X117602000Y-113030000D02*
X119634000Y-113030000D01*
X152670000Y-112252000D02*
X154686000Y-110236000D01*
X154686000Y-110236000D02*
X154686000Y-108966000D01*
X141844000Y-111506000D02*
X140208000Y-111506000D01*
X135997672Y-107442000D02*
X135382000Y-106826328D01*
X136398000Y-107442000D02*
X135997672Y-107442000D01*
X135382000Y-106826328D02*
X135382000Y-105918000D01*
X144018000Y-112252000D02*
X145796000Y-112252000D01*
X145796000Y-112252000D02*
X152670000Y-112252000D01*
D46*
X160020000Y-118491000D02*
X159629451Y-118100451D01*
X155702000Y-119142000D02*
X155702000Y-118100451D01*
X159629451Y-118100451D02*
X155702000Y-118100451D01*
D45*
X141986000Y-122108000D02*
X141036000Y-122108000D01*
X141036000Y-122108000D02*
X140716000Y-122428000D01*
D46*
X119421000Y-84242000D02*
X119421000Y-82627000D01*
X119421000Y-82627000D02*
X119344000Y-82550000D01*
X126492000Y-78740000D02*
X126492000Y-77470000D01*
X113030000Y-77216000D02*
X112014000Y-77216000D01*
X104866000Y-82550000D02*
X104866000Y-83784000D01*
X104866000Y-83784000D02*
X104902000Y-83820000D01*
D44*
X120312000Y-91778000D02*
X120396000Y-91694000D01*
X119380000Y-91778000D02*
X119380000Y-92964000D01*
X119380000Y-91778000D02*
X120312000Y-91778000D01*
X118552000Y-91778000D02*
X119380000Y-91778000D01*
X119380000Y-85852000D02*
X119380000Y-84582000D01*
X141986000Y-122108000D02*
X142560000Y-122108000D01*
X142560000Y-122108000D02*
X143510000Y-121158000D01*
X143510000Y-121158000D02*
X145542000Y-121158000D01*
X145542000Y-121158000D02*
X146304000Y-120396000D01*
X146304000Y-116586000D02*
X145796000Y-116078000D01*
D46*
X145796000Y-115062000D02*
X145796000Y-112522000D01*
D44*
X145796000Y-116078000D02*
X145796000Y-112522000D01*
X145796000Y-112522000D02*
X145796000Y-112252000D01*
D46*
X146548451Y-118100451D02*
X146304000Y-117856000D01*
X155702000Y-118100451D02*
X146548451Y-118100451D01*
D44*
X146304000Y-120396000D02*
X146304000Y-117856000D01*
X146304000Y-117856000D02*
X146304000Y-116586000D01*
X96647000Y-100665000D02*
X99014000Y-98298000D01*
X96647000Y-101948000D02*
X96647000Y-100665000D01*
X99014000Y-98298000D02*
X107350000Y-98298000D01*
X107350000Y-98298000D02*
X107442000Y-98390000D01*
X154686000Y-108942000D02*
X153405000Y-108942000D01*
X153405000Y-108942000D02*
X153381000Y-108966000D01*
D45*
X139954000Y-122428000D02*
X137668000Y-122428000D01*
X140716000Y-122428000D02*
X139954000Y-122428000D01*
D44*
X119634000Y-114554000D02*
X119634000Y-113030000D01*
X137160000Y-122404000D02*
X137160000Y-121666000D01*
X137160000Y-121666000D02*
X137668000Y-121158000D01*
X132585500Y-121412000D02*
X127762000Y-121412000D01*
X127762000Y-121412000D02*
X126238000Y-119888000D01*
X140208000Y-111506000D02*
X139446000Y-110744000D01*
X139446000Y-110744000D02*
X136649866Y-110744000D01*
X136649866Y-110744000D02*
X134872933Y-108967067D01*
X114950000Y-121732000D02*
X115778000Y-120904000D01*
X113792000Y-121732000D02*
X114950000Y-121732000D01*
X115778000Y-120904000D02*
X116840000Y-120904000D01*
X116840000Y-120904000D02*
X116840000Y-118872000D01*
X116840000Y-118872000D02*
X117602000Y-118110000D01*
X117602000Y-118110000D02*
X117602000Y-113284000D01*
D43*
X155194000Y-110744000D02*
X154686000Y-110236000D01*
X155194000Y-110744000D02*
X154940000Y-110490000D01*
X155956000Y-111506000D02*
X155194000Y-110744000D01*
D46*
G04 #@! TO.N,Net-(C13-Pad2)*
X106243000Y-79842000D02*
X106243000Y-78049000D01*
X106243000Y-78049000D02*
X106172000Y-77978000D01*
X106172000Y-73406000D02*
X105918000Y-73152000D01*
X105918000Y-73152000D02*
X105156000Y-73152000D01*
X106172000Y-77216000D02*
X107188000Y-77216000D01*
X106172000Y-77216000D02*
X106172000Y-73406000D01*
X106172000Y-77978000D02*
X106172000Y-77216000D01*
X102092000Y-75184000D02*
X103124000Y-75184000D01*
X103124000Y-75184000D02*
X103632000Y-74676000D01*
X103632000Y-74676000D02*
X103886000Y-74422000D01*
X103886000Y-74422000D02*
X103886000Y-73406000D01*
X103886000Y-73406000D02*
X104140000Y-73152000D01*
X104140000Y-73152000D02*
X105156000Y-73152000D01*
G04 #@! TO.N,Net-(C14-Pad2)*
X102092000Y-77216000D02*
X105156000Y-77216000D01*
X105593000Y-78863000D02*
X105216000Y-78486000D01*
X105593000Y-79842000D02*
X105593000Y-78863000D01*
X105216000Y-78486000D02*
X105216000Y-77276000D01*
X105216000Y-77276000D02*
X105156000Y-77216000D01*
X105172000Y-76337000D02*
X105156000Y-76321000D01*
X105172000Y-77216000D02*
X105172000Y-76337000D01*
X105156000Y-76321000D02*
X105156000Y-75184000D01*
G04 #@! TO.N,Net-(C16-Pad2)*
X120721000Y-78863000D02*
X120650000Y-78792000D01*
X120721000Y-79842000D02*
X120721000Y-78863000D01*
X120650000Y-78792000D02*
X120650000Y-78232000D01*
X119888000Y-73152000D02*
X119126000Y-73152000D01*
X119126000Y-73152000D02*
X118364000Y-73914000D01*
X118364000Y-73914000D02*
X118364000Y-74422000D01*
X120650000Y-73660000D02*
X120650000Y-73406000D01*
X120650000Y-73406000D02*
X120396000Y-73152000D01*
X120396000Y-73152000D02*
X119888000Y-73152000D01*
X120650000Y-77216000D02*
X121666000Y-77216000D01*
X120650000Y-77216000D02*
X120650000Y-73660000D01*
X120650000Y-78232000D02*
X120650000Y-77216000D01*
X118364000Y-74422000D02*
X118364000Y-74930000D01*
X118364000Y-74930000D02*
X118110000Y-75184000D01*
X118110000Y-75184000D02*
X117094000Y-75184000D01*
G04 #@! TO.N,Net-(C17-Pad2)*
X120071000Y-78863000D02*
X119694000Y-78486000D01*
X120071000Y-79842000D02*
X120071000Y-78863000D01*
X119694000Y-78486000D02*
X119694000Y-77276000D01*
X119694000Y-77276000D02*
X119634000Y-77216000D01*
X119650000Y-77216000D02*
X117094000Y-77216000D01*
X119650000Y-77216000D02*
X119650000Y-75200000D01*
D43*
G04 #@! TO.N,/control/ENCA*
X119365000Y-121732000D02*
X118872000Y-121239000D01*
X120396000Y-121732000D02*
X119365000Y-121732000D01*
X118872000Y-121239000D02*
X118872000Y-117348000D01*
X118872000Y-117348000D02*
X119126000Y-117094000D01*
X119126000Y-117094000D02*
X120396000Y-117094000D01*
D46*
X129440000Y-108306000D02*
X129084000Y-107950000D01*
X130444000Y-108306000D02*
X129440000Y-108306000D01*
X129084000Y-107950000D02*
X122174000Y-107950000D01*
X121266001Y-108857999D02*
X121266001Y-114699999D01*
X122174000Y-107950000D02*
X121266001Y-108857999D01*
X121266001Y-114699999D02*
X120396000Y-115570000D01*
X120396000Y-115570000D02*
X120396000Y-117094000D01*
D43*
G04 #@! TO.N,/control/ENCB*
X124729000Y-121732000D02*
X125222000Y-121239000D01*
X123698000Y-121732000D02*
X124729000Y-121732000D01*
X125222000Y-121239000D02*
X125222000Y-117348000D01*
X125222000Y-117348000D02*
X124968000Y-117094000D01*
X124968000Y-117094000D02*
X123952000Y-117094000D01*
D46*
X129282066Y-109106000D02*
X128634066Y-108458000D01*
X130444000Y-109106000D02*
X129282066Y-109106000D01*
X128634066Y-108458000D02*
X122428000Y-108458000D01*
X121811999Y-109074001D02*
X121811999Y-113429999D01*
X122428000Y-108458000D02*
X121811999Y-109074001D01*
X121811999Y-113429999D02*
X123698000Y-115316000D01*
X123698000Y-115316000D02*
X123698000Y-117094000D01*
D43*
G04 #@! TO.N,Net-(C21-Pad1)*
X95938000Y-97067000D02*
X95938000Y-98298000D01*
X96012000Y-96993000D02*
X95938000Y-97067000D01*
X98038000Y-96266000D02*
X96012000Y-96266000D01*
X98054000Y-96250000D02*
X98038000Y-96266000D01*
X99060000Y-96250000D02*
X98054000Y-96250000D01*
X96012000Y-94234000D02*
X96012000Y-96266000D01*
X96012000Y-96266000D02*
X96012000Y-96993000D01*
D48*
G04 #@! TO.N,VCC*
X181934000Y-99060000D02*
X179648000Y-101346000D01*
X185166000Y-99060000D02*
X181934000Y-99060000D01*
X178308000Y-101346000D02*
X174498000Y-101346000D01*
D47*
X178308000Y-101346000D02*
X178308000Y-96520000D01*
D48*
X179648000Y-101346000D02*
X178308000Y-101346000D01*
D47*
X178308000Y-96520000D02*
X184404000Y-90424000D01*
X184404000Y-90424000D02*
X184404000Y-86106000D01*
X175768000Y-111249208D02*
X174498000Y-109979208D01*
X175768000Y-112522000D02*
X175768000Y-111249208D01*
X181896000Y-105410000D02*
X174498000Y-105410000D01*
X183666000Y-105410000D02*
X181896000Y-105410000D01*
X174498000Y-105410000D02*
X174498000Y-101854000D01*
D43*
X174244000Y-108204000D02*
X174498000Y-108458000D01*
X171704000Y-108204000D02*
X174244000Y-108204000D01*
D47*
X174498000Y-109979208D02*
X174498000Y-108458000D01*
X174498000Y-108458000D02*
X174498000Y-105410000D01*
D45*
G04 #@! TO.N,Net-(C23-Pad1)*
X181028000Y-108966000D02*
X182240000Y-108966000D01*
X182240000Y-108966000D02*
X183642000Y-108966000D01*
X180848000Y-110860000D02*
X181102000Y-110606000D01*
X180848000Y-112522000D02*
X180848000Y-110860000D01*
X181102000Y-110606000D02*
X181102000Y-108966000D01*
X180848000Y-117564000D02*
X180848000Y-114184000D01*
X179324000Y-120650000D02*
X179324000Y-119088000D01*
X179324000Y-119088000D02*
X180848000Y-117564000D01*
X180848000Y-114184000D02*
X180848000Y-112522000D01*
D43*
G04 #@! TO.N,+6V*
X103190000Y-90000000D02*
X103190000Y-89088000D01*
X103190000Y-89088000D02*
X103378000Y-88900000D01*
X103378000Y-88900000D02*
X104902000Y-88900000D01*
X104902000Y-88900000D02*
X105156000Y-89154000D01*
X105156000Y-89154000D02*
X105156000Y-89916000D01*
D44*
X105090000Y-91038000D02*
X105238000Y-91186000D01*
X105090000Y-90000000D02*
X105090000Y-91038000D01*
X105238000Y-91186000D02*
X105664000Y-91186000D01*
X105664000Y-91186000D02*
X105918000Y-91440000D01*
X105918000Y-91440000D02*
X105918000Y-92202000D01*
D45*
X178308000Y-111249208D02*
X178054000Y-110995208D01*
X178308000Y-112522000D02*
X178308000Y-111249208D01*
X178054000Y-110995208D02*
X178054000Y-108966000D01*
X109474000Y-102592000D02*
X107466000Y-102592000D01*
X107466000Y-102592000D02*
X107442000Y-102616000D01*
D43*
X108219000Y-100650000D02*
X109474000Y-101905000D01*
X107228000Y-100650000D02*
X108219000Y-100650000D01*
X109474000Y-101905000D02*
X109474000Y-102362000D01*
D45*
X161798000Y-108942000D02*
X159536000Y-108942000D01*
X159536000Y-108942000D02*
X159512000Y-108966000D01*
D43*
X159552000Y-107000000D02*
X161102000Y-107000000D01*
X161102000Y-107000000D02*
X161798000Y-107696000D01*
X161798000Y-107696000D02*
X161798000Y-108712000D01*
D45*
X170688000Y-118110000D02*
X170688000Y-120650000D01*
X174244000Y-114554000D02*
X170688000Y-118110000D01*
X178308000Y-112522000D02*
X178308000Y-113284000D01*
X177038000Y-114554000D02*
X174244000Y-114554000D01*
X178308000Y-113284000D02*
X177038000Y-114554000D01*
X161798000Y-108942000D02*
X161798000Y-110204000D01*
X170688000Y-119094000D02*
X170688000Y-120396000D01*
D44*
X105894000Y-92756000D02*
X105178000Y-93472000D01*
X105894000Y-92456000D02*
X105894000Y-92756000D01*
X105178000Y-93472000D02*
X105156000Y-93472000D01*
X105156000Y-93472000D02*
X104394000Y-94234000D01*
X104394000Y-94234000D02*
X104394000Y-95758000D01*
X104394000Y-95758000D02*
X106172000Y-97536000D01*
X106172000Y-97536000D02*
X110490000Y-97536000D01*
X110490000Y-97536000D02*
X111506000Y-98552000D01*
X111506000Y-98552000D02*
X111506000Y-102108000D01*
X111506000Y-102108000D02*
X110998000Y-102616000D01*
X110998000Y-102616000D02*
X109474000Y-102616000D01*
D45*
X170688000Y-120650000D02*
X170688000Y-122212000D01*
X168336999Y-124563001D02*
X131675001Y-124563001D01*
X170688000Y-122212000D02*
X168336999Y-124563001D01*
X131675001Y-124563001D02*
X127103001Y-124563001D01*
X112079569Y-124977510D02*
X105165510Y-124977510D01*
X127103001Y-124563001D02*
X112494078Y-124563001D01*
X112494078Y-124563001D02*
X112079569Y-124977510D01*
X103598990Y-123410990D02*
X103598990Y-120175010D01*
X105165510Y-124977510D02*
X103598990Y-123410990D01*
X103598990Y-120175010D02*
X108458000Y-115316000D01*
X108458000Y-115316000D02*
X108458000Y-112268000D01*
X108458000Y-112268000D02*
X113538000Y-107188000D01*
X113538000Y-107188000D02*
X113538000Y-106172000D01*
X113538000Y-102616000D02*
X109982000Y-102616000D01*
D43*
X167386000Y-118872000D02*
X168910000Y-117348000D01*
D45*
X161798000Y-110204000D02*
X168910000Y-117316000D01*
D43*
X168910000Y-117348000D02*
X168910000Y-117316000D01*
D45*
X168910000Y-117316000D02*
X170688000Y-119094000D01*
D43*
G04 #@! TO.N,Net-(C28-Pad1)*
X106775000Y-94996000D02*
X107188000Y-94583000D01*
X105894000Y-94996000D02*
X106775000Y-94996000D01*
X107188000Y-94583000D02*
X107188000Y-88900000D01*
X107188000Y-88900000D02*
X106172000Y-87884000D01*
X106172000Y-87884000D02*
X105156000Y-87884000D01*
G04 #@! TO.N,+5V*
X95377000Y-107348000D02*
X95377000Y-108331000D01*
X95377000Y-108331000D02*
X95758000Y-108712000D01*
X95758000Y-108712000D02*
X95758000Y-109474000D01*
D45*
X103924000Y-102592000D02*
X103948000Y-102616000D01*
X102362000Y-102592000D02*
X103924000Y-102592000D01*
X103948000Y-102616000D02*
X104648000Y-102616000D01*
D44*
X102346000Y-102600000D02*
X102362000Y-102616000D01*
X95377000Y-107348000D02*
X95377000Y-106553000D01*
X95377000Y-106553000D02*
X96012000Y-105918000D01*
X96012000Y-105918000D02*
X101092000Y-105918000D01*
X101092000Y-105918000D02*
X102362000Y-104648000D01*
X102362000Y-104648000D02*
X102362000Y-102616000D01*
D43*
X96475340Y-109220000D02*
X96221340Y-109474000D01*
X97536000Y-109220000D02*
X96475340Y-109220000D01*
X96221340Y-109474000D02*
X96012000Y-109474000D01*
D44*
G04 #@! TO.N,VAA*
X103190000Y-87800000D02*
X101684000Y-87800000D01*
X101684000Y-87800000D02*
X100838000Y-88646000D01*
X100838000Y-88646000D02*
X98806000Y-88646000D01*
X98806000Y-88646000D02*
X98806000Y-87338000D01*
X98806000Y-79248000D02*
X98298000Y-78740000D01*
X99314000Y-65278000D02*
X98298000Y-66294000D01*
X112776000Y-65278000D02*
X99314000Y-65278000D01*
X114046000Y-73152000D02*
X113538000Y-72644000D01*
X98298000Y-73914000D02*
X98298000Y-73660000D01*
X98298000Y-78740000D02*
X98298000Y-73914000D01*
X114874000Y-73152000D02*
X114046000Y-73152000D01*
X113538000Y-72644000D02*
X113538000Y-66040000D01*
X113538000Y-66040000D02*
X112776000Y-65278000D01*
X99888000Y-73152000D02*
X98298000Y-73152000D01*
X98298000Y-66294000D02*
X98298000Y-73152000D01*
X98298000Y-73152000D02*
X98298000Y-73914000D01*
X98806000Y-87338000D02*
X98806000Y-80518000D01*
D43*
X97028000Y-80518000D02*
X98806000Y-80518000D01*
D44*
X98806000Y-80518000D02*
X98806000Y-79248000D01*
D46*
G04 #@! TO.N,Net-(C32-Pad1)*
X139954000Y-120742000D02*
X140300000Y-120396000D01*
X139954000Y-121346000D02*
X139954000Y-120742000D01*
X140300000Y-120396000D02*
X141986000Y-120396000D01*
X143218000Y-119912000D02*
X142988000Y-120142000D01*
X144272000Y-119912000D02*
X143218000Y-119912000D01*
X142988000Y-120142000D02*
X141986000Y-120142000D01*
X159463225Y-119761000D02*
X159082225Y-120142000D01*
X160020000Y-119761000D02*
X159463225Y-119761000D01*
X159082225Y-120142000D02*
X148082000Y-120142000D01*
X148082000Y-120142000D02*
X147320000Y-119380000D01*
X144526000Y-118110000D02*
X144526000Y-118675685D01*
X144526000Y-118675685D02*
X144526000Y-119634000D01*
G04 #@! TO.N,/pressuresense/PRES1*
X113538000Y-84328000D02*
X111506000Y-82296000D01*
X116208602Y-84328000D02*
X113538000Y-84328000D01*
X116332000Y-86106000D02*
X116332000Y-84451398D01*
X123714000Y-97165000D02*
X123698000Y-97149000D01*
X123714000Y-98044000D02*
X123714000Y-97165000D01*
X122682000Y-87122000D02*
X117348000Y-87122000D01*
X123698000Y-97149000D02*
X123698000Y-88138000D01*
X123698000Y-88138000D02*
X122682000Y-87122000D01*
X111506000Y-82296000D02*
X110678000Y-82296000D01*
X116332000Y-84451398D02*
X116208602Y-84328000D01*
X117348000Y-87122000D02*
X116332000Y-86106000D01*
X137744000Y-117206000D02*
X137744000Y-115443003D01*
X137744000Y-115443003D02*
X137616997Y-115316000D01*
X122573999Y-97898001D02*
X123552001Y-97898001D01*
X122174000Y-98298000D02*
X122573999Y-97898001D01*
X123552001Y-97898001D02*
X123698000Y-98044000D01*
X132334000Y-119380000D02*
X128270000Y-119380000D01*
X128270000Y-119380000D02*
X124460000Y-115570000D01*
G04 #@! TO.N,/pressuresense/PRES2*
X125984000Y-82296000D02*
X125156000Y-82296000D01*
X124984000Y-100330000D02*
X124984000Y-99451000D01*
X124984000Y-99451000D02*
X124714000Y-99181000D01*
X124714000Y-88138000D02*
X126492000Y-86360000D01*
X124714000Y-99181000D02*
X124714000Y-88138000D01*
X126492000Y-82804000D02*
X125984000Y-82296000D01*
X126492000Y-86360000D02*
X126492000Y-82804000D01*
X138544000Y-117206000D02*
X138544000Y-115389000D01*
X138544000Y-115389000D02*
X138617000Y-115316000D01*
X123698000Y-99822000D02*
X124206000Y-100330000D01*
X124206000Y-100330000D02*
X124968000Y-100330000D01*
X133096000Y-118618000D02*
X128270000Y-118618000D01*
X122814397Y-111373603D02*
X122936000Y-111252000D01*
X128270000Y-118618000D02*
X122814397Y-113162397D01*
X122814397Y-113162397D02*
X122814397Y-111373603D01*
D43*
G04 #@! TO.N,Net-(C35-Pad1)*
X112202000Y-91186000D02*
X112933000Y-91186000D01*
X112933000Y-91186000D02*
X115570000Y-91186000D01*
X115570000Y-91186000D02*
X115824000Y-90932000D01*
X115824000Y-90932000D02*
X115824000Y-89916000D01*
X115824000Y-89916000D02*
X116078000Y-89662000D01*
X116078000Y-89662000D02*
X116586000Y-89662000D01*
G04 #@! TO.N,/pressuresense/VREF*
X100838000Y-85024000D02*
X100838000Y-85598000D01*
X100838000Y-85598000D02*
X101600000Y-86360000D01*
X101600000Y-86360000D02*
X101809520Y-86569520D01*
X114598480Y-86569520D02*
X115316000Y-85852000D01*
X115316000Y-85852000D02*
X115316000Y-85090000D01*
X118552000Y-90489000D02*
X118363000Y-90678000D01*
X118552000Y-89578000D02*
X118552000Y-90489000D01*
X118363000Y-90678000D02*
X116840000Y-90678000D01*
X116840000Y-90678000D02*
X116586000Y-90932000D01*
X116586000Y-90932000D02*
X116586000Y-91948000D01*
X113371000Y-88479000D02*
X113284000Y-88392000D01*
X113260000Y-86593520D02*
X113284000Y-86569520D01*
X113260000Y-88900000D02*
X113260000Y-86593520D01*
X111252000Y-86569520D02*
X113284000Y-86569520D01*
X113284000Y-86569520D02*
X114598480Y-86569520D01*
X116652000Y-91778000D02*
X116652000Y-91882000D01*
X116652000Y-91882000D02*
X116307499Y-92226501D01*
X111530501Y-92226501D02*
X111252000Y-91948000D01*
X111252000Y-91948000D02*
X111252000Y-89662000D01*
X111252000Y-89662000D02*
X112014000Y-88900000D01*
X112014000Y-88900000D02*
X113284000Y-88900000D01*
D46*
X140840000Y-113906000D02*
X140462000Y-114284000D01*
X141844000Y-113906000D02*
X140840000Y-113906000D01*
X140462000Y-114284000D02*
X140462000Y-115824000D01*
X140462000Y-115824000D02*
X140746001Y-116108001D01*
X140746001Y-116108001D02*
X141986000Y-117348000D01*
X141986000Y-117348000D02*
X141986000Y-118618000D01*
X113030000Y-92226501D02*
X113030000Y-96520000D01*
D43*
X113030000Y-92226501D02*
X111530501Y-92226501D01*
X116307499Y-92226501D02*
X113030000Y-92226501D01*
D46*
X113030000Y-96520000D02*
X116840000Y-100330000D01*
X116840000Y-100330000D02*
X117348000Y-100330000D01*
X132585500Y-120347859D02*
X128209725Y-120347859D01*
X128209725Y-120347859D02*
X126104933Y-118243067D01*
D43*
X108458000Y-86823340D02*
X108458000Y-86569520D01*
X108458000Y-87884000D02*
X108458000Y-86823340D01*
X101809520Y-86569520D02*
X108458000Y-86569520D01*
X108458000Y-86569520D02*
X111252000Y-86569520D01*
G04 #@! TO.N,Net-(C36-Pad2)*
X110302000Y-93472000D02*
X110302000Y-91252000D01*
X110302000Y-91252000D02*
X110236000Y-91186000D01*
X110236000Y-91186000D02*
X110236000Y-88900000D01*
G04 #@! TO.N,Net-(J2-Pad3)*
X107122000Y-73152000D02*
X107122000Y-70546000D01*
X107122000Y-70546000D02*
X104140000Y-67564000D01*
G04 #@! TO.N,Net-(J2-Pad4)*
X101788000Y-73152000D02*
X101788000Y-68514000D01*
X101788000Y-68514000D02*
X100838000Y-67564000D01*
G04 #@! TO.N,Net-(J2-Pad2)*
X107853000Y-75184000D02*
X108458000Y-74579000D01*
X107122000Y-75184000D02*
X107853000Y-75184000D01*
X108458000Y-74579000D02*
X108458000Y-70612000D01*
X108458000Y-70612000D02*
X107696000Y-69850000D01*
X107696000Y-69850000D02*
X107696000Y-67564000D01*
G04 #@! TO.N,Net-(J2-Pad1)*
X110048000Y-73152000D02*
X110048000Y-70800000D01*
X110048000Y-70800000D02*
X111252000Y-69596000D01*
X111252000Y-69596000D02*
X111252000Y-67564000D01*
G04 #@! TO.N,Net-(J3-Pad1)*
X124526000Y-73152000D02*
X124526000Y-71308000D01*
X124526000Y-71308000D02*
X126238000Y-69596000D01*
X126238000Y-69596000D02*
X126238000Y-67564000D01*
G04 #@! TO.N,Net-(J3-Pad2)*
X123190000Y-68072000D02*
X122682000Y-67564000D01*
X121600000Y-75184000D02*
X122428000Y-75184000D01*
X122428000Y-75184000D02*
X122682000Y-74930000D01*
X122682000Y-74930000D02*
X122682000Y-67564000D01*
G04 #@! TO.N,Net-(J3-Pad4)*
X116774000Y-72121000D02*
X115824000Y-71171000D01*
X116774000Y-73152000D02*
X116774000Y-72121000D01*
X115824000Y-71171000D02*
X115824000Y-67564000D01*
G04 #@! TO.N,Net-(J3-Pad3)*
X121600000Y-72852000D02*
X121412000Y-72664000D01*
X121600000Y-73152000D02*
X121600000Y-72852000D01*
X121412000Y-72664000D02*
X121412000Y-71628000D01*
X121412000Y-71628000D02*
X119126000Y-69342000D01*
X119126000Y-69342000D02*
X119126000Y-67564000D01*
G04 #@! TO.N,Net-(J4-Pad1)*
X95377000Y-101948000D02*
X95377000Y-100457000D01*
X95377000Y-100457000D02*
X94488000Y-99568000D01*
X94488000Y-83820000D02*
X93980000Y-83312000D01*
X93980000Y-83312000D02*
X92456000Y-83312000D01*
X93038000Y-94488000D02*
X94488000Y-94488000D01*
X94488000Y-99568000D02*
X94488000Y-94488000D01*
X94488000Y-94488000D02*
X94488000Y-83820000D01*
G04 #@! TO.N,Net-(J4-Pad4)*
X94107000Y-100792000D02*
X92964000Y-99649000D01*
X94107000Y-101948000D02*
X94107000Y-100792000D01*
X92964000Y-99649000D02*
X92964000Y-98298000D01*
X92964000Y-98298000D02*
X92964000Y-97028000D01*
X92964000Y-97028000D02*
X91440000Y-95504000D01*
X91440000Y-95504000D02*
X91440000Y-91948000D01*
X91440000Y-91948000D02*
X92456000Y-90932000D01*
D46*
G04 #@! TO.N,Net-(P1-Pad5)*
X164277699Y-118932301D02*
X164846000Y-118364000D01*
X162560000Y-119761000D02*
X163388699Y-118932301D01*
X163388699Y-118932301D02*
X164277699Y-118932301D01*
X164846000Y-118364000D02*
X164846000Y-116078000D01*
X164846000Y-116078000D02*
X162052000Y-113284000D01*
X162052000Y-113284000D02*
X149860000Y-113284000D01*
G04 #@! TO.N,Net-(P1-Pad4)*
X161290000Y-118491000D02*
X160274000Y-117475000D01*
X160274000Y-117475000D02*
X160274000Y-115868612D01*
X160274000Y-115868612D02*
X160274000Y-115824000D01*
X160274000Y-115824000D02*
X159258000Y-114808000D01*
X159258000Y-114808000D02*
X148082000Y-114808000D01*
X148082000Y-114808000D02*
X147574000Y-114300000D01*
X147574000Y-114300000D02*
X147574000Y-113284000D01*
G04 #@! TO.N,/MC7*
X141844000Y-114706000D02*
X143358000Y-114706000D01*
X143358000Y-114706000D02*
X144018000Y-114046000D01*
X152146000Y-110998000D02*
X152654000Y-110490000D01*
X152654000Y-110490000D02*
X152654000Y-105156000D01*
X152654000Y-105156000D02*
X153416000Y-104394000D01*
X170688000Y-101429001D02*
X170688000Y-86106000D01*
X167723001Y-104394000D02*
X170688000Y-101429001D01*
X153416000Y-104394000D02*
X167723001Y-104394000D01*
G04 #@! TO.N,/MC8*
X139344000Y-117206000D02*
X139344000Y-113640000D01*
X150876000Y-109982000D02*
X150876000Y-105517980D01*
X150876000Y-105517980D02*
X145434020Y-100076000D01*
X145434020Y-92587886D02*
X144032134Y-91186000D01*
X145434020Y-100076000D02*
X145434020Y-92587886D01*
X144032134Y-91186000D02*
X140208000Y-91186000D01*
X140208000Y-91186000D02*
X137668000Y-88646000D01*
X137668000Y-88646000D02*
X137668000Y-86106000D01*
X139344000Y-113640000D02*
X139344000Y-111912000D01*
X139344000Y-111912000D02*
X139192000Y-111760000D01*
G04 #@! TO.N,PGD*
X134544000Y-106810000D02*
X135430000Y-107696000D01*
X134544000Y-105806000D02*
X134544000Y-106810000D01*
X135430000Y-107696000D02*
X135430000Y-107744000D01*
X135430000Y-107744000D02*
X135890000Y-108204000D01*
X135890000Y-108204000D02*
X140208000Y-108204000D01*
X144780000Y-108204000D02*
X145345685Y-108204000D01*
X145345685Y-108204000D02*
X146558000Y-108204000D01*
X146558000Y-108204000D02*
X147574000Y-109220000D01*
X147574000Y-109220000D02*
X147574000Y-111252000D01*
G04 #@! TO.N,PGC*
X136154000Y-109220000D02*
X139700000Y-109220000D01*
X133744000Y-105806000D02*
X133744000Y-106810000D01*
X133744000Y-106810000D02*
X136154000Y-109220000D01*
X149098000Y-109220000D02*
X149352000Y-109220000D01*
X149352000Y-109220000D02*
X149860000Y-109728000D01*
X149860000Y-109728000D02*
X149860000Y-111252000D01*
G04 #@! TO.N,Net-(R10-Pad1)*
X136944000Y-118210000D02*
X137098000Y-118364000D01*
X136944000Y-117206000D02*
X136944000Y-118210000D01*
X137098000Y-118364000D02*
X139446000Y-118364000D01*
X139446000Y-118364000D02*
X139700000Y-118618000D01*
X139700000Y-118618000D02*
X139954000Y-118872000D01*
X139954000Y-118872000D02*
X139954000Y-119380000D01*
G04 #@! TO.N,Net-(R19-Pad1)*
X100838000Y-83124000D02*
X100838000Y-82520000D01*
X100838000Y-82520000D02*
X100838000Y-81534000D01*
X102870000Y-85024000D02*
X102870000Y-84582000D01*
X102870000Y-84582000D02*
X102870000Y-84328000D01*
X102870000Y-84328000D02*
X102616000Y-84074000D01*
X102616000Y-84074000D02*
X101092000Y-84074000D01*
X101092000Y-84074000D02*
X100838000Y-83820000D01*
X100838000Y-83820000D02*
X100838000Y-83312000D01*
X105593000Y-84242000D02*
X105593000Y-82225000D01*
X105593000Y-82225000D02*
X104058999Y-80690999D01*
X104058999Y-80690999D02*
X103886000Y-80518000D01*
X103886000Y-80518000D02*
X101092000Y-80518000D01*
X101092000Y-80518000D02*
X100838000Y-80772000D01*
X100838000Y-80772000D02*
X100838000Y-81534000D01*
X105593000Y-84242000D02*
X105593000Y-85273000D01*
X106372010Y-86052010D02*
X110289990Y-86052010D01*
X105593000Y-85273000D02*
X106372010Y-86052010D01*
X110289990Y-86052010D02*
X110744000Y-85598000D01*
X110744000Y-85598000D02*
X110744000Y-84582000D01*
G04 #@! TO.N,Net-(R20-Pad1)*
X120071000Y-84242000D02*
X120071000Y-82225000D01*
X120071000Y-82225000D02*
X118364000Y-80518000D01*
X118364000Y-80518000D02*
X116078000Y-80518000D01*
X116078000Y-80518000D02*
X115316000Y-81280000D01*
X120071000Y-84242000D02*
X120071000Y-85273000D01*
X120071000Y-85273000D02*
X120904000Y-86106000D01*
X120904000Y-86106000D02*
X124714000Y-86106000D01*
X124714000Y-86106000D02*
X125222000Y-85598000D01*
X125222000Y-85598000D02*
X125222000Y-84836000D01*
X116963398Y-84328000D02*
X116332000Y-83696602D01*
X116332000Y-83696602D02*
X116332000Y-82550000D01*
X116078000Y-82296000D02*
X115316000Y-82296000D01*
X116332000Y-82550000D02*
X116078000Y-82296000D01*
X115316000Y-81280000D02*
X115316000Y-82296000D01*
X115316000Y-82296000D02*
X115316000Y-83058000D01*
X116963398Y-84328000D02*
X117094000Y-84328000D01*
X117094000Y-84328000D02*
X117348000Y-84328000D01*
X117348000Y-84328000D02*
X117602000Y-84582000D01*
X117602000Y-84582000D02*
X117602000Y-84836000D01*
G04 #@! TO.N,Net-(R21-Pad1)*
X106243000Y-84242000D02*
X106243000Y-82225000D01*
X106243000Y-82225000D02*
X107950000Y-80518000D01*
X107950000Y-80518000D02*
X108712000Y-80518000D01*
X106243000Y-85221000D02*
X106620000Y-85598000D01*
X106243000Y-84242000D02*
X106243000Y-85221000D01*
X106620000Y-85598000D02*
X107442000Y-85598000D01*
X107442000Y-85598000D02*
X107950000Y-85090000D01*
X107950000Y-85090000D02*
X108712000Y-85090000D01*
G04 #@! TO.N,Net-(R22-Pad1)*
X120721000Y-85221000D02*
X121098000Y-85598000D01*
X120721000Y-84242000D02*
X120721000Y-85221000D01*
X121098000Y-85598000D02*
X121920000Y-85598000D01*
X121920000Y-85598000D02*
X122428000Y-85090000D01*
X122428000Y-85090000D02*
X123190000Y-85090000D01*
X120721000Y-84242000D02*
X120721000Y-82225000D01*
X120721000Y-82225000D02*
X122428000Y-80518000D01*
X122428000Y-80518000D02*
X122936000Y-80518000D01*
G04 #@! TO.N,Net-(R23-Pad2)*
X110048000Y-77216000D02*
X110048000Y-75250000D01*
X110048000Y-75250000D02*
X109982000Y-75184000D01*
X107372000Y-79842000D02*
X107696000Y-79518000D01*
X106893000Y-79842000D02*
X107372000Y-79842000D01*
X107696000Y-79518000D02*
X107696000Y-78740000D01*
X107696000Y-78740000D02*
X109220000Y-77216000D01*
X109220000Y-77216000D02*
X109982000Y-77216000D01*
G04 #@! TO.N,Net-(R25-Pad2)*
X121850000Y-79842000D02*
X121920000Y-79772000D01*
X121371000Y-79842000D02*
X121850000Y-79842000D01*
X121920000Y-79772000D02*
X121920000Y-79756000D01*
X121920000Y-79756000D02*
X122174000Y-79502000D01*
X122174000Y-79502000D02*
X122174000Y-78994000D01*
X122174000Y-78994000D02*
X123698000Y-77470000D01*
X123698000Y-77470000D02*
X123952000Y-77216000D01*
X123952000Y-77216000D02*
X124460000Y-77216000D01*
X124460000Y-77216000D02*
X124460000Y-75184000D01*
G04 #@! TO.N,Net-(R27-Pad1)*
X107372000Y-84242000D02*
X107696000Y-83918000D01*
X106893000Y-84242000D02*
X107372000Y-84242000D01*
X107696000Y-83918000D02*
X107696000Y-82804000D01*
X107696000Y-82804000D02*
X108204000Y-82296000D01*
X108204000Y-82296000D02*
X109474000Y-82296000D01*
X109474000Y-82296000D02*
X109728000Y-82042000D01*
X109728000Y-82042000D02*
X109728000Y-80518000D01*
X109728000Y-80518000D02*
X109728000Y-80264000D01*
X109728000Y-80264000D02*
X109982000Y-80010000D01*
X109982000Y-80010000D02*
X110744000Y-80010000D01*
G04 #@! TO.N,Net-(R28-Pad1)*
X121850000Y-84242000D02*
X122174000Y-83918000D01*
X121371000Y-84242000D02*
X121850000Y-84242000D01*
X122174000Y-83918000D02*
X122174000Y-82804000D01*
X122174000Y-82804000D02*
X122682000Y-82296000D01*
X122682000Y-82296000D02*
X123952000Y-82296000D01*
X123952000Y-82296000D02*
X124206000Y-82042000D01*
X124206000Y-82042000D02*
X124206000Y-81026000D01*
X124206000Y-81026000D02*
X124206000Y-80518000D01*
X124206000Y-80518000D02*
X124714000Y-80010000D01*
X124714000Y-80010000D02*
X124968000Y-80010000D01*
D43*
G04 #@! TO.N,Net-(R31-Pad1)*
X113792000Y-123632000D02*
X112334000Y-123632000D01*
X112334000Y-123632000D02*
X111760000Y-124206000D01*
X111760000Y-124206000D02*
X105918000Y-124206000D01*
X105918000Y-124206000D02*
X105156000Y-123444000D01*
X105156000Y-123444000D02*
X105156000Y-121920000D01*
X120396000Y-123632000D02*
X114112000Y-123632000D01*
X114112000Y-123632000D02*
X114046000Y-123698000D01*
G04 #@! TO.N,Net-(R32-Pad1)*
X112014000Y-122174000D02*
X110236000Y-122174000D01*
X112522000Y-122682000D02*
X112014000Y-122174000D01*
X123698000Y-123698000D02*
X122428000Y-123698000D01*
X121412000Y-122682000D02*
X112522000Y-122682000D01*
X122428000Y-123698000D02*
X121412000Y-122682000D01*
D46*
G04 #@! TO.N,/control/ENCSW*
X130444000Y-109906000D02*
X128702000Y-109906000D01*
X128702000Y-109906000D02*
X127762000Y-108966000D01*
X127762000Y-108966000D02*
X123444000Y-108966000D01*
X123444000Y-108966000D02*
X122936000Y-109474000D01*
X122370315Y-106934000D02*
X120338315Y-108966000D01*
X122936000Y-106934000D02*
X122370315Y-106934000D01*
X120338315Y-108966000D02*
X119634000Y-108966000D01*
X119634000Y-111064000D02*
X119634000Y-108966000D01*
X119634000Y-108966000D02*
X119634000Y-106172000D01*
X119634000Y-106172000D02*
X118510020Y-105048020D01*
X118510020Y-105048020D02*
X107041980Y-105048020D01*
X107041980Y-105048020D02*
X105156000Y-106934000D01*
G04 #@! TO.N,/pressuresense/VREFPMW*
X117856000Y-102616000D02*
X112268000Y-97028000D01*
X112268000Y-97028000D02*
X112268000Y-93472000D01*
X130444000Y-110706000D02*
X128232000Y-110706000D01*
X124531001Y-109656999D02*
X124206000Y-109982000D01*
X128232000Y-110706000D02*
X127182999Y-109656999D01*
X127182999Y-109656999D02*
X124531001Y-109656999D01*
X124206000Y-102616000D02*
X117856000Y-102616000D01*
G04 #@! TO.N,/control/DISPCS*
X132144000Y-104802000D02*
X131826000Y-104484000D01*
X132144000Y-105806000D02*
X132144000Y-104802000D01*
X131826000Y-104484000D02*
X131826000Y-96266000D01*
X131826000Y-96266000D02*
X131826000Y-96012000D01*
X130717001Y-94903001D02*
X130717001Y-92802999D01*
X131826000Y-96012000D02*
X130717001Y-94903001D01*
X130717001Y-92802999D02*
X132842000Y-90678000D01*
X132842000Y-90678000D02*
X138176000Y-90678000D01*
G04 #@! TO.N,/control/DSPRST*
X132944000Y-105806000D02*
X132944000Y-101498000D01*
X134458999Y-99983001D02*
X134458999Y-96681001D01*
X132944000Y-101498000D02*
X134458999Y-99983001D01*
X134458999Y-96681001D02*
X134458999Y-96358999D01*
X133442999Y-95342999D02*
X133442999Y-92871001D01*
X134458999Y-96358999D02*
X133442999Y-95342999D01*
X133442999Y-92871001D02*
X133858000Y-92456000D01*
X133858000Y-92456000D02*
X135636000Y-92456000D01*
X135636000Y-92456000D02*
X137160000Y-93980000D01*
G04 #@! TO.N,/control/SCL*
X136944000Y-105037602D02*
X137668000Y-104313602D01*
X136944000Y-105806000D02*
X136944000Y-105037602D01*
X137668000Y-104313602D02*
X137668000Y-102362000D01*
X137668000Y-102362000D02*
X137668000Y-101854000D01*
X137668000Y-101854000D02*
X135636000Y-99822000D01*
X135636000Y-99822000D02*
X135636000Y-97790000D01*
G04 #@! TO.N,/control/SDA*
X137744000Y-104879668D02*
X138176000Y-104447668D01*
X137744000Y-105806000D02*
X137744000Y-104879668D01*
X138176000Y-104447668D02*
X138176000Y-97790000D01*
G04 #@! TO.N,/control/SCK*
X138544000Y-106810000D02*
X138922000Y-107188000D01*
X138544000Y-105806000D02*
X138544000Y-106810000D01*
X138922000Y-107188000D02*
X140462000Y-107188000D01*
X140462000Y-107188000D02*
X140746001Y-106903999D01*
X140746001Y-106903999D02*
X142240000Y-105410000D01*
X142240000Y-105410000D02*
X142240000Y-103378000D01*
X144980010Y-100637990D02*
X144980010Y-92775943D01*
X142240000Y-103378000D02*
X144980010Y-100637990D01*
X144980010Y-92775943D02*
X143898067Y-91694000D01*
X143898067Y-91694000D02*
X133096000Y-91694000D01*
X133096000Y-91694000D02*
X132080000Y-92710000D01*
X132080000Y-92710000D02*
X132080000Y-93980000D01*
G04 #@! TO.N,/control/SDI*
X139344000Y-105806000D02*
X139344000Y-102210000D01*
X139344000Y-102210000D02*
X140716000Y-100838000D01*
X140716000Y-100838000D02*
X140716000Y-96266000D01*
X140716000Y-96266000D02*
X139954000Y-95504000D01*
X139954000Y-95504000D02*
X136144000Y-95504000D01*
X136144000Y-95504000D02*
X134620000Y-93980000D01*
G04 #@! TO.N,/control/SDO*
X140144000Y-104802000D02*
X144526000Y-100420000D01*
X140144000Y-105806000D02*
X140144000Y-104802000D01*
X144526000Y-100420000D02*
X144526000Y-92964000D01*
X144526000Y-92964000D02*
X143764000Y-92202000D01*
X143764000Y-92202000D02*
X141478000Y-92202000D01*
X141478000Y-92202000D02*
X139700000Y-93980000D01*
G04 #@! TO.N,/io/CANTX*
X142848000Y-107506000D02*
X143674000Y-106680000D01*
X141844000Y-107506000D02*
X142848000Y-107506000D01*
X143674000Y-106680000D02*
X143764000Y-106680000D01*
X104333738Y-104140000D02*
X124460000Y-104140000D01*
X92202000Y-107442000D02*
X91694000Y-107950000D01*
X92964000Y-107442000D02*
X92202000Y-107442000D01*
X91694000Y-107950000D02*
X91694000Y-110490000D01*
X124460000Y-104140000D02*
X127000000Y-106680000D01*
X91694000Y-110490000D02*
X91884001Y-110680001D01*
X91884001Y-110680001D02*
X97793737Y-110680001D01*
X97793737Y-110680001D02*
X104333738Y-104140000D01*
G04 #@! TO.N,/io/CANRX*
X144780000Y-106739962D02*
X144780000Y-105918000D01*
X141844000Y-108306000D02*
X143213962Y-108306000D01*
X143213962Y-108306000D02*
X144780000Y-106739962D01*
X97201000Y-107348000D02*
X97361000Y-107188000D01*
X96647000Y-107348000D02*
X97201000Y-107348000D01*
X100643672Y-107188000D02*
X104199672Y-103632000D01*
X97361000Y-107188000D02*
X100643672Y-107188000D01*
X125222000Y-103632000D02*
X127000000Y-105410000D01*
X104199672Y-103632000D02*
X125222000Y-103632000D01*
G04 #@! TO.N,/MC1*
X134544000Y-117206000D02*
X134544000Y-114630000D01*
X134544000Y-114630000D02*
X134620000Y-114554000D01*
X176707800Y-83566000D02*
X179247800Y-81026000D01*
X173990000Y-83566000D02*
X176707800Y-83566000D01*
X168910000Y-105918000D02*
X168910000Y-104528066D01*
X171704000Y-101734066D02*
X171704000Y-91320066D01*
X168910000Y-104528066D02*
X171704000Y-101734066D01*
X171704000Y-91320066D02*
X172535811Y-90488255D01*
X172535811Y-85020189D02*
X173990000Y-83566000D01*
X172535811Y-90488255D02*
X172535811Y-85020189D01*
G04 #@! TO.N,/MC2*
X172081801Y-84788399D02*
X172081801Y-90300199D01*
X175844200Y-81026000D02*
X172081801Y-84788399D01*
X172081801Y-90300199D02*
X171958000Y-90424000D01*
X171958000Y-90424000D02*
X171196000Y-91186000D01*
X171196000Y-101600000D02*
X167640000Y-105156000D01*
X171196000Y-91186000D02*
X171196000Y-101600000D01*
X167640000Y-105156000D02*
X167640000Y-105918000D01*
X133744000Y-117206000D02*
X133744000Y-113932000D01*
X133744000Y-113932000D02*
X133604000Y-113792000D01*
G04 #@! TO.N,/MC3*
X146227800Y-82462840D02*
X145124640Y-83566000D01*
X146227800Y-81026000D02*
X146227800Y-82462840D01*
X145124640Y-83566000D02*
X137922000Y-83566000D01*
X137922000Y-83566000D02*
X135890000Y-85598000D01*
X135890000Y-85598000D02*
X131826000Y-85598000D01*
X131826000Y-85598000D02*
X129286000Y-88138000D01*
X129286000Y-88138000D02*
X129286000Y-88392000D01*
X127762000Y-115570000D02*
X130556000Y-115570000D01*
X122428000Y-93726000D02*
X122428000Y-88392000D01*
X119126000Y-97028000D02*
X122428000Y-93726000D01*
X119126000Y-100838000D02*
X119126000Y-97028000D01*
X127000000Y-101854000D02*
X120142000Y-101854000D01*
X120142000Y-101854000D02*
X119126000Y-100838000D01*
G04 #@! TO.N,/MC4*
X130444000Y-114706000D02*
X128118000Y-114706000D01*
X128118000Y-114706000D02*
X128016000Y-114808000D01*
X125573398Y-114808000D02*
X123541398Y-112776000D01*
X128016000Y-114808000D02*
X125573398Y-114808000D01*
X125476000Y-102616000D02*
X127508000Y-102616000D01*
X127811001Y-102312999D02*
X127811001Y-97331001D01*
X127508000Y-102616000D02*
X127811001Y-102312999D01*
X127561990Y-87322010D02*
X127561990Y-84020010D01*
X125476000Y-89408000D02*
X127561990Y-87322010D01*
X127561990Y-84020010D02*
X132588000Y-78994000D01*
X132588000Y-78994000D02*
X140970000Y-78994000D01*
X140970000Y-78994000D02*
X143002000Y-81026000D01*
X127811001Y-97331001D02*
X125476000Y-94996000D01*
X125476000Y-94996000D02*
X125476000Y-89408000D01*
G04 #@! TO.N,/MC5*
X136017000Y-81026000D02*
X132588000Y-81026000D01*
X132588000Y-81026000D02*
X128016000Y-85598000D01*
X128016000Y-85598000D02*
X128016000Y-90170000D01*
X128016000Y-90170000D02*
X128016000Y-92710000D01*
X128362999Y-93054397D02*
X128362999Y-102200999D01*
X128016000Y-92710000D02*
X128018602Y-92710000D01*
X128018602Y-92710000D02*
X128362999Y-93054397D01*
X128362999Y-103638601D02*
X132842000Y-108117602D01*
X128362999Y-102200999D02*
X128362999Y-103638601D01*
X132842000Y-108117602D02*
X132842000Y-112776000D01*
X132842000Y-112776000D02*
X131826000Y-113792000D01*
X131826000Y-113792000D02*
X130556000Y-113792000D01*
G04 #@! TO.N,/MC6*
X130444000Y-113106000D02*
X131483866Y-113106000D01*
X131483866Y-113106000D02*
X132073933Y-112515933D01*
X166116000Y-102616000D02*
X166116000Y-93472000D01*
X166116000Y-93472000D02*
X165354000Y-92710000D01*
X165354000Y-92710000D02*
X165354000Y-82296000D01*
X165354000Y-82296000D02*
X166624000Y-81026000D01*
X166624000Y-81026000D02*
X168910000Y-81026000D01*
G04 #@! TO.N,/io/CANSTBY*
X92964000Y-103886000D02*
X92964000Y-101854000D01*
X91239990Y-105610010D02*
X92964000Y-103886000D01*
X91239990Y-111051990D02*
X91239990Y-105610010D01*
X97981794Y-111134011D02*
X91322011Y-111134011D01*
X129440000Y-107506000D02*
X129341001Y-107407001D01*
X130444000Y-107506000D02*
X129440000Y-107506000D01*
X129341001Y-107407001D02*
X126457001Y-107407001D01*
X123644010Y-104594010D02*
X104521794Y-104594010D01*
X126457001Y-107407001D02*
X123644010Y-104594010D01*
X91322011Y-111134011D02*
X91239990Y-111051990D01*
X104521794Y-104594010D02*
X97981794Y-111134011D01*
D43*
G04 #@! TO.N,Net-(C10-Pad1)*
X136144000Y-117206000D02*
X136144000Y-119126000D01*
D44*
X135753000Y-121396000D02*
X136906000Y-120243000D01*
X134620000Y-121396000D02*
X135753000Y-121396000D01*
X136906000Y-120243000D02*
X136906000Y-119380000D01*
G04 #@! TD*
M02*
