G04 #@! TF.GenerationSoftware,KiCad,Pcbnew,5.0.0-5.0.0*
G04 #@! TF.CreationDate,2018-10-25T16:06:32-04:00*
G04 #@! TF.ProjectId,l6203dualmotordrive,6C363230336475616C6D6F746F726472,rev?*
G04 #@! TF.SameCoordinates,Original*
G04 #@! TF.FileFunction,Soldermask,Bot*
G04 #@! TF.FilePolarity,Negative*
%FSLAX46Y46*%
G04 Gerber Fmt 4.6, Leading zero omitted, Abs format (unit mm)*
G04 Created by KiCad (PCBNEW 5.0.0-5.0.0) date Thu Oct 25 16:06:32 2018*
%MOMM*%
%LPD*%
G01*
G04 APERTURE LIST*
%ADD10O,2.133600X3.149600*%
%ADD11O,5.181600X10.261600*%
%ADD12C,1.701600*%
%ADD13O,1.701600X1.701600*%
%ADD14R,1.701600X1.701600*%
%ADD15C,2.501600*%
%ADD16R,2.501600X2.501600*%
%ADD17O,2.501600X2.501600*%
%ADD18O,2.100580X2.100580*%
%ADD19R,2.100580X2.100580*%
%ADD20C,1.092200*%
%ADD21C,2.476500*%
%ADD22R,1.101600X3.301600*%
%ADD23C,2.133600*%
%ADD24O,1.801600X1.801600*%
%ADD25R,1.801600X1.801600*%
%ADD26O,1.901600X1.901600*%
%ADD27R,1.901600X1.901600*%
%ADD28C,3.801600*%
%ADD29C,1.501600*%
G04 APERTURE END LIST*
D10*
G04 #@! TO.C,SW1*
X107696000Y-122054000D03*
X110196000Y-122054000D03*
X105196000Y-122054000D03*
X110196000Y-107054000D03*
X105196000Y-107054000D03*
D11*
X101696000Y-114554000D03*
X113696000Y-114554000D03*
G04 #@! TD*
D12*
G04 #@! TO.C,C3*
X167640000Y-75692000D03*
D13*
X182640000Y-75692000D03*
G04 #@! TD*
G04 #@! TO.C,C4*
X149112000Y-75438000D03*
D12*
X134112000Y-75438000D03*
G04 #@! TD*
G04 #@! TO.C,C9*
X126238000Y-110784000D03*
D14*
X126238000Y-113284000D03*
G04 #@! TD*
D15*
G04 #@! TO.C,C22*
X174498000Y-96600000D03*
D16*
X174498000Y-101600000D03*
G04 #@! TD*
D12*
G04 #@! TO.C,C23*
X176824000Y-120650000D03*
D14*
X179324000Y-120650000D03*
G04 #@! TD*
G04 #@! TO.C,C25*
X170688000Y-120650000D03*
D12*
X173188000Y-120650000D03*
G04 #@! TD*
D14*
G04 #@! TO.C,C31*
X98806000Y-88646000D03*
D12*
X98806000Y-91146000D03*
G04 #@! TD*
D17*
G04 #@! TO.C,D1*
X162560000Y-85852000D03*
D16*
X162560000Y-73152000D03*
G04 #@! TD*
G04 #@! TO.C,D2*
X165354000Y-67310000D03*
D17*
X178054000Y-67310000D03*
G04 #@! TD*
D16*
G04 #@! TO.C,D3*
X146050000Y-67310000D03*
D17*
X133350000Y-67310000D03*
G04 #@! TD*
G04 #@! TO.C,D4*
X156718000Y-85852000D03*
D16*
X156718000Y-73152000D03*
G04 #@! TD*
G04 #@! TO.C,j1*
X185166000Y-99060000D03*
D15*
X185166000Y-95560000D03*
G04 #@! TD*
D16*
G04 #@! TO.C,J1*
X160782000Y-67818000D03*
D15*
X157282000Y-67818000D03*
X150282000Y-67818000D03*
X153782000Y-67818000D03*
G04 #@! TD*
G04 #@! TO.C,J2*
X104252000Y-67564000D03*
X100752000Y-67564000D03*
X107752000Y-67564000D03*
D16*
X111252000Y-67564000D03*
G04 #@! TD*
G04 #@! TO.C,J3*
X126238000Y-67564000D03*
D15*
X122738000Y-67564000D03*
X115738000Y-67564000D03*
X119238000Y-67564000D03*
G04 #@! TD*
D18*
G04 #@! TO.C,J4*
X92456000Y-88392000D03*
X92456000Y-85852000D03*
D19*
X92456000Y-83312000D03*
D18*
X92456000Y-90932000D03*
G04 #@! TD*
D20*
G04 #@! TO.C,P1*
X158750000Y-119126000D03*
X163830000Y-120142000D03*
X163830000Y-118110000D03*
D21*
X161925000Y-121666000D03*
X161925000Y-116586000D03*
X158750000Y-116586000D03*
X158750000Y-121666000D03*
G04 #@! TD*
D22*
G04 #@! TO.C,R1*
X159714000Y-96520000D03*
X165914000Y-96520000D03*
G04 #@! TD*
G04 #@! TO.C,R2*
X156008000Y-91948000D03*
X149808000Y-91948000D03*
G04 #@! TD*
G04 #@! TO.C,R3*
X165966000Y-91948000D03*
X159766000Y-91948000D03*
G04 #@! TD*
G04 #@! TO.C,R4*
X149808000Y-96520000D03*
X156008000Y-96520000D03*
G04 #@! TD*
G04 #@! TO.C,R5*
X138632000Y-75184000D03*
X144832000Y-75184000D03*
G04 #@! TD*
G04 #@! TO.C,R6*
X178614000Y-75692000D03*
X172414000Y-75692000D03*
G04 #@! TD*
D23*
G04 #@! TO.C,U2*
X169037000Y-81026000D03*
X170738800Y-86106000D03*
X172440600Y-81026000D03*
X174142400Y-86106000D03*
X175844200Y-81026000D03*
X177546000Y-86106000D03*
X179247800Y-81026000D03*
X180949600Y-86106000D03*
X182651400Y-81026000D03*
X184353200Y-86106000D03*
X186055000Y-81026000D03*
G04 #@! TD*
G04 #@! TO.C,U3*
X153035000Y-81026000D03*
X151333200Y-86106000D03*
X149631400Y-81026000D03*
X147929600Y-86106000D03*
X146227800Y-81026000D03*
X144526000Y-86106000D03*
X142824200Y-81026000D03*
X141122400Y-86106000D03*
X139420600Y-81026000D03*
X137718800Y-86106000D03*
X136017000Y-81026000D03*
G04 #@! TD*
D24*
G04 #@! TO.C,U6*
X142240000Y-93980000D03*
X139700000Y-93980000D03*
X137160000Y-93980000D03*
X134620000Y-93980000D03*
X132080000Y-93980000D03*
X129540000Y-93980000D03*
D25*
X127000000Y-93980000D03*
G04 #@! TD*
D24*
G04 #@! TO.C,U7*
X138176000Y-97790000D03*
X135636000Y-97790000D03*
X133096000Y-97790000D03*
D25*
X130556000Y-97790000D03*
G04 #@! TD*
D26*
G04 #@! TO.C,U9*
X175768000Y-112522000D03*
X178308000Y-112522000D03*
D27*
X180848000Y-112522000D03*
G04 #@! TD*
D28*
G04 #@! TO.C,REF\002A\002A*
X92964000Y-66802000D03*
G04 #@! TD*
G04 #@! TO.C,REF\002A\002A*
X92964000Y-121666000D03*
G04 #@! TD*
G04 #@! TO.C,REF\002A\002A*
X185928000Y-121666000D03*
G04 #@! TD*
G04 #@! TO.C,REF\002A\002A*
X185928000Y-66802000D03*
G04 #@! TD*
D29*
G04 #@! TO.C,REF\002A\002A*
X169164000Y-113792000D03*
X169164000Y-111252000D03*
G04 #@! TD*
G04 #@! TO.C,REF\002A\002A*
X92456000Y-114554000D03*
X94996000Y-114554000D03*
G04 #@! TD*
M02*
