G04 #@! TF.GenerationSoftware,KiCad,Pcbnew,5.0.0-5.0.0*
G04 #@! TF.CreationDate,2018-10-25T16:06:32-04:00*
G04 #@! TF.ProjectId,l6203dualmotordrive,6C363230336475616C6D6F746F726472,rev?*
G04 #@! TF.SameCoordinates,Original*
G04 #@! TF.FileFunction,Legend,Bot*
G04 #@! TF.FilePolarity,Positive*
%FSLAX46Y46*%
G04 Gerber Fmt 4.6, Leading zero omitted, Abs format (unit mm)*
G04 Created by KiCad (PCBNEW 5.0.0-5.0.0) date Thu Oct 25 16:06:32 2018*
%MOMM*%
%LPD*%
G01*
G04 APERTURE LIST*
%ADD10C,0.300000*%
%ADD11C,0.120000*%
%ADD12C,0.150000*%
G04 APERTURE END LIST*
D10*
X93420285Y-80799714D02*
X93491714Y-80871142D01*
X93706000Y-80942571D01*
X93848857Y-80942571D01*
X94063142Y-80871142D01*
X94206000Y-80728285D01*
X94277428Y-80585428D01*
X94348857Y-80299714D01*
X94348857Y-80085428D01*
X94277428Y-79799714D01*
X94206000Y-79656857D01*
X94063142Y-79514000D01*
X93848857Y-79442571D01*
X93706000Y-79442571D01*
X93491714Y-79514000D01*
X93420285Y-79585428D01*
X92848857Y-80514000D02*
X92134571Y-80514000D01*
X92991714Y-80942571D02*
X92491714Y-79442571D01*
X91991714Y-80942571D01*
X91491714Y-80942571D02*
X91491714Y-79442571D01*
X90634571Y-80942571D01*
X90634571Y-79442571D01*
X110493428Y-64869142D02*
X110279142Y-64940571D01*
X109922000Y-64940571D01*
X109779142Y-64869142D01*
X109707714Y-64797714D01*
X109636285Y-64654857D01*
X109636285Y-64512000D01*
X109707714Y-64369142D01*
X109779142Y-64297714D01*
X109922000Y-64226285D01*
X110207714Y-64154857D01*
X110350571Y-64083428D01*
X110422000Y-64012000D01*
X110493428Y-63869142D01*
X110493428Y-63726285D01*
X110422000Y-63583428D01*
X110350571Y-63512000D01*
X110207714Y-63440571D01*
X109850571Y-63440571D01*
X109636285Y-63512000D01*
X109207714Y-63940571D02*
X108636285Y-63940571D01*
X108993428Y-63440571D02*
X108993428Y-64726285D01*
X108922000Y-64869142D01*
X108779142Y-64940571D01*
X108636285Y-64940571D01*
X108136285Y-64940571D02*
X108136285Y-63940571D01*
X108136285Y-64226285D02*
X108064857Y-64083428D01*
X107993428Y-64012000D01*
X107850571Y-63940571D01*
X107707714Y-63940571D01*
X106564857Y-64940571D02*
X106564857Y-64154857D01*
X106636285Y-64012000D01*
X106779142Y-63940571D01*
X107064857Y-63940571D01*
X107207714Y-64012000D01*
X106564857Y-64869142D02*
X106707714Y-64940571D01*
X107064857Y-64940571D01*
X107207714Y-64869142D01*
X107279142Y-64726285D01*
X107279142Y-64583428D01*
X107207714Y-64440571D01*
X107064857Y-64369142D01*
X106707714Y-64369142D01*
X106564857Y-64297714D01*
X105850571Y-64940571D02*
X105850571Y-63940571D01*
X105850571Y-63440571D02*
X105922000Y-63512000D01*
X105850571Y-63583428D01*
X105779142Y-63512000D01*
X105850571Y-63440571D01*
X105850571Y-63583428D01*
X105136285Y-63940571D02*
X105136285Y-64940571D01*
X105136285Y-64083428D02*
X105064857Y-64012000D01*
X104922000Y-63940571D01*
X104707714Y-63940571D01*
X104564857Y-64012000D01*
X104493428Y-64154857D01*
X104493428Y-64940571D01*
X101850571Y-64940571D02*
X102707714Y-64940571D01*
X102279142Y-64940571D02*
X102279142Y-63440571D01*
X102422000Y-63654857D01*
X102564857Y-63797714D01*
X102707714Y-63869142D01*
X125479428Y-64869142D02*
X125265142Y-64940571D01*
X124908000Y-64940571D01*
X124765142Y-64869142D01*
X124693714Y-64797714D01*
X124622285Y-64654857D01*
X124622285Y-64512000D01*
X124693714Y-64369142D01*
X124765142Y-64297714D01*
X124908000Y-64226285D01*
X125193714Y-64154857D01*
X125336571Y-64083428D01*
X125408000Y-64012000D01*
X125479428Y-63869142D01*
X125479428Y-63726285D01*
X125408000Y-63583428D01*
X125336571Y-63512000D01*
X125193714Y-63440571D01*
X124836571Y-63440571D01*
X124622285Y-63512000D01*
X124193714Y-63940571D02*
X123622285Y-63940571D01*
X123979428Y-63440571D02*
X123979428Y-64726285D01*
X123908000Y-64869142D01*
X123765142Y-64940571D01*
X123622285Y-64940571D01*
X123122285Y-64940571D02*
X123122285Y-63940571D01*
X123122285Y-64226285D02*
X123050857Y-64083428D01*
X122979428Y-64012000D01*
X122836571Y-63940571D01*
X122693714Y-63940571D01*
X121550857Y-64940571D02*
X121550857Y-64154857D01*
X121622285Y-64012000D01*
X121765142Y-63940571D01*
X122050857Y-63940571D01*
X122193714Y-64012000D01*
X121550857Y-64869142D02*
X121693714Y-64940571D01*
X122050857Y-64940571D01*
X122193714Y-64869142D01*
X122265142Y-64726285D01*
X122265142Y-64583428D01*
X122193714Y-64440571D01*
X122050857Y-64369142D01*
X121693714Y-64369142D01*
X121550857Y-64297714D01*
X120836571Y-64940571D02*
X120836571Y-63940571D01*
X120836571Y-63440571D02*
X120908000Y-63512000D01*
X120836571Y-63583428D01*
X120765142Y-63512000D01*
X120836571Y-63440571D01*
X120836571Y-63583428D01*
X120122285Y-63940571D02*
X120122285Y-64940571D01*
X120122285Y-64083428D02*
X120050857Y-64012000D01*
X119908000Y-63940571D01*
X119693714Y-63940571D01*
X119550857Y-64012000D01*
X119479428Y-64154857D01*
X119479428Y-64940571D01*
X117693714Y-63583428D02*
X117622285Y-63512000D01*
X117479428Y-63440571D01*
X117122285Y-63440571D01*
X116979428Y-63512000D01*
X116908000Y-63583428D01*
X116836571Y-63726285D01*
X116836571Y-63869142D01*
X116908000Y-64083428D01*
X117765142Y-64940571D01*
X116836571Y-64940571D01*
X151101714Y-65194571D02*
X151101714Y-63694571D01*
X150601714Y-64766000D01*
X150101714Y-63694571D01*
X150101714Y-65194571D01*
X149173142Y-65194571D02*
X149316000Y-65123142D01*
X149387428Y-65051714D01*
X149458857Y-64908857D01*
X149458857Y-64480285D01*
X149387428Y-64337428D01*
X149316000Y-64266000D01*
X149173142Y-64194571D01*
X148958857Y-64194571D01*
X148816000Y-64266000D01*
X148744571Y-64337428D01*
X148673142Y-64480285D01*
X148673142Y-64908857D01*
X148744571Y-65051714D01*
X148816000Y-65123142D01*
X148958857Y-65194571D01*
X149173142Y-65194571D01*
X148244571Y-64194571D02*
X147673142Y-64194571D01*
X148030285Y-63694571D02*
X148030285Y-64980285D01*
X147958857Y-65123142D01*
X147816000Y-65194571D01*
X147673142Y-65194571D01*
X146958857Y-65194571D02*
X147101714Y-65123142D01*
X147173142Y-65051714D01*
X147244571Y-64908857D01*
X147244571Y-64480285D01*
X147173142Y-64337428D01*
X147101714Y-64266000D01*
X146958857Y-64194571D01*
X146744571Y-64194571D01*
X146601714Y-64266000D01*
X146530285Y-64337428D01*
X146458857Y-64480285D01*
X146458857Y-64908857D01*
X146530285Y-65051714D01*
X146601714Y-65123142D01*
X146744571Y-65194571D01*
X146958857Y-65194571D01*
X145816000Y-65194571D02*
X145816000Y-64194571D01*
X145816000Y-64480285D02*
X145744571Y-64337428D01*
X145673142Y-64266000D01*
X145530285Y-64194571D01*
X145387428Y-64194571D01*
X143816000Y-63837428D02*
X143744571Y-63766000D01*
X143601714Y-63694571D01*
X143244571Y-63694571D01*
X143101714Y-63766000D01*
X143030285Y-63837428D01*
X142958857Y-63980285D01*
X142958857Y-64123142D01*
X143030285Y-64337428D01*
X143887428Y-65194571D01*
X142958857Y-65194571D01*
X168881714Y-65194571D02*
X168881714Y-63694571D01*
X168381714Y-64766000D01*
X167881714Y-63694571D01*
X167881714Y-65194571D01*
X166953142Y-65194571D02*
X167096000Y-65123142D01*
X167167428Y-65051714D01*
X167238857Y-64908857D01*
X167238857Y-64480285D01*
X167167428Y-64337428D01*
X167096000Y-64266000D01*
X166953142Y-64194571D01*
X166738857Y-64194571D01*
X166596000Y-64266000D01*
X166524571Y-64337428D01*
X166453142Y-64480285D01*
X166453142Y-64908857D01*
X166524571Y-65051714D01*
X166596000Y-65123142D01*
X166738857Y-65194571D01*
X166953142Y-65194571D01*
X166024571Y-64194571D02*
X165453142Y-64194571D01*
X165810285Y-63694571D02*
X165810285Y-64980285D01*
X165738857Y-65123142D01*
X165596000Y-65194571D01*
X165453142Y-65194571D01*
X164738857Y-65194571D02*
X164881714Y-65123142D01*
X164953142Y-65051714D01*
X165024571Y-64908857D01*
X165024571Y-64480285D01*
X164953142Y-64337428D01*
X164881714Y-64266000D01*
X164738857Y-64194571D01*
X164524571Y-64194571D01*
X164381714Y-64266000D01*
X164310285Y-64337428D01*
X164238857Y-64480285D01*
X164238857Y-64908857D01*
X164310285Y-65051714D01*
X164381714Y-65123142D01*
X164524571Y-65194571D01*
X164738857Y-65194571D01*
X163596000Y-65194571D02*
X163596000Y-64194571D01*
X163596000Y-64480285D02*
X163524571Y-64337428D01*
X163453142Y-64266000D01*
X163310285Y-64194571D01*
X163167428Y-64194571D01*
X160738857Y-65194571D02*
X161596000Y-65194571D01*
X161167428Y-65194571D02*
X161167428Y-63694571D01*
X161310285Y-63908857D01*
X161453142Y-64051714D01*
X161596000Y-64123142D01*
X186816857Y-102374000D02*
X186959714Y-102302571D01*
X187174000Y-102302571D01*
X187388285Y-102374000D01*
X187531142Y-102516857D01*
X187602571Y-102659714D01*
X187674000Y-102945428D01*
X187674000Y-103159714D01*
X187602571Y-103445428D01*
X187531142Y-103588285D01*
X187388285Y-103731142D01*
X187174000Y-103802571D01*
X187031142Y-103802571D01*
X186816857Y-103731142D01*
X186745428Y-103659714D01*
X186745428Y-103159714D01*
X187031142Y-103159714D01*
X186102571Y-103802571D02*
X186102571Y-102302571D01*
X185245428Y-103802571D01*
X185245428Y-102302571D01*
X184531142Y-103802571D02*
X184531142Y-102302571D01*
X184174000Y-102302571D01*
X183959714Y-102374000D01*
X183816857Y-102516857D01*
X183745428Y-102659714D01*
X183674000Y-102945428D01*
X183674000Y-103159714D01*
X183745428Y-103445428D01*
X183816857Y-103588285D01*
X183959714Y-103731142D01*
X184174000Y-103802571D01*
X184531142Y-103802571D01*
X187237428Y-92118571D02*
X187237428Y-90618571D01*
X186880285Y-90618571D01*
X186666000Y-90690000D01*
X186523142Y-90832857D01*
X186451714Y-90975714D01*
X186380285Y-91261428D01*
X186380285Y-91475714D01*
X186451714Y-91761428D01*
X186523142Y-91904285D01*
X186666000Y-92047142D01*
X186880285Y-92118571D01*
X187237428Y-92118571D01*
X184880285Y-91975714D02*
X184951714Y-92047142D01*
X185166000Y-92118571D01*
X185308857Y-92118571D01*
X185523142Y-92047142D01*
X185666000Y-91904285D01*
X185737428Y-91761428D01*
X185808857Y-91475714D01*
X185808857Y-91261428D01*
X185737428Y-90975714D01*
X185666000Y-90832857D01*
X185523142Y-90690000D01*
X185308857Y-90618571D01*
X185166000Y-90618571D01*
X184951714Y-90690000D01*
X184880285Y-90761428D01*
X184237428Y-91547142D02*
X183094571Y-91547142D01*
X183666000Y-92118571D02*
X183666000Y-90975714D01*
D11*
G04 #@! TO.C,R1*
X165414000Y-94700000D02*
X160214000Y-94700000D01*
X160214000Y-98340000D02*
X165414000Y-98340000D01*
G04 #@! TO.C,R2*
X150308000Y-93768000D02*
X155508000Y-93768000D01*
X155508000Y-90128000D02*
X150308000Y-90128000D01*
G04 #@! TO.C,R3*
X160266000Y-93768000D02*
X165466000Y-93768000D01*
X165466000Y-90128000D02*
X160266000Y-90128000D01*
G04 #@! TO.C,R4*
X155508000Y-94700000D02*
X150308000Y-94700000D01*
X150308000Y-98340000D02*
X155508000Y-98340000D01*
G04 #@! TO.C,R5*
X144332000Y-73364000D02*
X139132000Y-73364000D01*
X139132000Y-77004000D02*
X144332000Y-77004000D01*
G04 #@! TO.C,R6*
X172914000Y-77512000D02*
X178114000Y-77512000D01*
X178114000Y-73872000D02*
X172914000Y-73872000D01*
G04 #@! TO.C,R1*
D12*
X162980666Y-100020380D02*
X163314000Y-99544190D01*
X163552095Y-100020380D02*
X163552095Y-99020380D01*
X163171142Y-99020380D01*
X163075904Y-99068000D01*
X163028285Y-99115619D01*
X162980666Y-99210857D01*
X162980666Y-99353714D01*
X163028285Y-99448952D01*
X163075904Y-99496571D01*
X163171142Y-99544190D01*
X163552095Y-99544190D01*
X162028285Y-100020380D02*
X162599714Y-100020380D01*
X162314000Y-100020380D02*
X162314000Y-99020380D01*
X162409238Y-99163238D01*
X162504476Y-99258476D01*
X162599714Y-99306095D01*
G04 #@! TO.C,R2*
X153074666Y-89606380D02*
X153408000Y-89130190D01*
X153646095Y-89606380D02*
X153646095Y-88606380D01*
X153265142Y-88606380D01*
X153169904Y-88654000D01*
X153122285Y-88701619D01*
X153074666Y-88796857D01*
X153074666Y-88939714D01*
X153122285Y-89034952D01*
X153169904Y-89082571D01*
X153265142Y-89130190D01*
X153646095Y-89130190D01*
X152693714Y-88701619D02*
X152646095Y-88654000D01*
X152550857Y-88606380D01*
X152312761Y-88606380D01*
X152217523Y-88654000D01*
X152169904Y-88701619D01*
X152122285Y-88796857D01*
X152122285Y-88892095D01*
X152169904Y-89034952D01*
X152741333Y-89606380D01*
X152122285Y-89606380D01*
G04 #@! TO.C,R3*
X163032666Y-89606380D02*
X163366000Y-89130190D01*
X163604095Y-89606380D02*
X163604095Y-88606380D01*
X163223142Y-88606380D01*
X163127904Y-88654000D01*
X163080285Y-88701619D01*
X163032666Y-88796857D01*
X163032666Y-88939714D01*
X163080285Y-89034952D01*
X163127904Y-89082571D01*
X163223142Y-89130190D01*
X163604095Y-89130190D01*
X162699333Y-88606380D02*
X162080285Y-88606380D01*
X162413619Y-88987333D01*
X162270761Y-88987333D01*
X162175523Y-89034952D01*
X162127904Y-89082571D01*
X162080285Y-89177809D01*
X162080285Y-89415904D01*
X162127904Y-89511142D01*
X162175523Y-89558761D01*
X162270761Y-89606380D01*
X162556476Y-89606380D01*
X162651714Y-89558761D01*
X162699333Y-89511142D01*
G04 #@! TO.C,R4*
X153074666Y-100020380D02*
X153408000Y-99544190D01*
X153646095Y-100020380D02*
X153646095Y-99020380D01*
X153265142Y-99020380D01*
X153169904Y-99068000D01*
X153122285Y-99115619D01*
X153074666Y-99210857D01*
X153074666Y-99353714D01*
X153122285Y-99448952D01*
X153169904Y-99496571D01*
X153265142Y-99544190D01*
X153646095Y-99544190D01*
X152217523Y-99353714D02*
X152217523Y-100020380D01*
X152455619Y-98972761D02*
X152693714Y-99687047D01*
X152074666Y-99687047D01*
G04 #@! TO.C,R5*
X141898666Y-78236380D02*
X142232000Y-77760190D01*
X142470095Y-78236380D02*
X142470095Y-77236380D01*
X142089142Y-77236380D01*
X141993904Y-77284000D01*
X141946285Y-77331619D01*
X141898666Y-77426857D01*
X141898666Y-77569714D01*
X141946285Y-77664952D01*
X141993904Y-77712571D01*
X142089142Y-77760190D01*
X142470095Y-77760190D01*
X140993904Y-77236380D02*
X141470095Y-77236380D01*
X141517714Y-77712571D01*
X141470095Y-77664952D01*
X141374857Y-77617333D01*
X141136761Y-77617333D01*
X141041523Y-77664952D01*
X140993904Y-77712571D01*
X140946285Y-77807809D01*
X140946285Y-78045904D01*
X140993904Y-78141142D01*
X141041523Y-78188761D01*
X141136761Y-78236380D01*
X141374857Y-78236380D01*
X141470095Y-78188761D01*
X141517714Y-78141142D01*
G04 #@! TO.C,R6*
X175680666Y-78744380D02*
X176014000Y-78268190D01*
X176252095Y-78744380D02*
X176252095Y-77744380D01*
X175871142Y-77744380D01*
X175775904Y-77792000D01*
X175728285Y-77839619D01*
X175680666Y-77934857D01*
X175680666Y-78077714D01*
X175728285Y-78172952D01*
X175775904Y-78220571D01*
X175871142Y-78268190D01*
X176252095Y-78268190D01*
X174823523Y-77744380D02*
X175014000Y-77744380D01*
X175109238Y-77792000D01*
X175156857Y-77839619D01*
X175252095Y-77982476D01*
X175299714Y-78172952D01*
X175299714Y-78553904D01*
X175252095Y-78649142D01*
X175204476Y-78696761D01*
X175109238Y-78744380D01*
X174918761Y-78744380D01*
X174823523Y-78696761D01*
X174775904Y-78649142D01*
X174728285Y-78553904D01*
X174728285Y-78315809D01*
X174775904Y-78220571D01*
X174823523Y-78172952D01*
X174918761Y-78125333D01*
X175109238Y-78125333D01*
X175204476Y-78172952D01*
X175252095Y-78220571D01*
X175299714Y-78315809D01*
G04 #@! TD*
M02*
