M48
;DRILL file {KiCad 5.0.0-5.0.0} date Thu Oct 25 16:06:36 2018
;FORMAT={-:-/ absolute / inch / decimal}
FMAT,2
INCH,TZ
T1C0.0157
T2C0.0315
T3C0.0320
T4C0.0394
T5C0.0400
T6C0.0432
T7C0.0470
T8C0.0472
T9C0.1200
%
G90
G05
M72
T1
X4.1Y-3.09
X4.12Y-3.9209
X4.12Y-4.
X4.1286Y-3.25
X4.17Y-3.9209
X4.17Y-3.96
X4.17Y-4.
X4.17Y-4.05
X4.22Y-3.9209
X4.23Y-3.8736
X4.45Y-3.04
X4.47Y-4.04
X4.47Y-4.18
X4.62Y-3.95
X4.65Y-3.46
X4.67Y-3.09
X4.6986Y-3.25
X4.7Y-3.38
X4.7Y-3.66
X4.71Y-4.51
X4.81Y-3.87
X4.81Y-4.69
X4.82Y-3.48
X4.84Y-4.21
X4.84Y-4.31
X4.84Y-4.38
X4.8638Y-4.44
X4.87Y-3.93
X4.89Y-4.04
X4.89Y-4.33
X4.8998Y-4.5602
X4.94Y-4.04
X4.9648Y-4.6552
X4.97Y-4.72
X4.98Y-3.1
X5.Y-3.89
X5.Y-3.89
X5.Y-4.01
X5.Y-4.15
X5.Y-4.2
X5.03Y-2.92
X5.03Y-4.55
X5.09Y-3.48
X5.19Y-4.37
X5.1998Y-4.4298
X5.21Y-4.7
X5.2199Y-4.7381
X5.2199Y-4.78
X5.24Y-4.67
X5.26Y-4.48
X5.28Y-3.48
X5.3Y-4.51
X5.31Y-4.29
X5.33Y-4.56
X5.37Y-4.23
X5.38Y-4.03
X5.418Y-4.54
X5.42Y-4.77
X5.44Y-3.57
X5.4574Y-4.54
X5.48Y-4.4
X5.5Y-4.3
X5.52Y-4.26
X5.52Y-4.34
X5.59Y-4.67
X5.66Y-4.2
X5.67Y-4.49
X5.69Y-4.65
X5.7Y-4.17
X5.7Y-4.26
X5.8Y-4.7
X5.87Y-4.3
X5.94Y-4.33
X5.99Y-4.37
X6.0386Y-4.29
X6.08Y-4.77
X6.1433Y-4.25
X6.17Y-4.1709
X6.19Y-4.25
X6.23Y-4.1709
X6.23Y-4.21
X6.23Y-4.25
X6.23Y-4.3
X6.29Y-4.1709
X6.54Y-4.04
X6.58Y-3.48
X6.6Y-4.17
X6.65Y-4.17
T2
X6.6Y-2.98
X7.1906Y-2.98
X3.89Y-3.49
X3.89Y-3.5884
X6.72Y-4.75
X6.8184Y-4.75
X4.97Y-4.3616
X4.97Y-4.46
X6.9616Y-4.75
X7.06Y-4.75
X5.28Y-2.97
X5.8706Y-2.97
T3
X3.64Y-4.51
X3.74Y-4.51
X6.66Y-4.38
X6.66Y-4.48
T4
X6.92Y-4.43
X7.02Y-4.43
X7.12Y-4.43
X5.Y-3.7
X5.1Y-3.7
X5.2Y-3.7
X5.3Y-3.7
X5.4Y-3.7
X5.5Y-3.7
X5.6Y-3.7
X5.14Y-3.85
X5.24Y-3.85
X5.34Y-3.85
X5.44Y-3.85
T5
X5.355Y-3.19
X5.422Y-3.39
X5.489Y-3.19
X5.556Y-3.39
X5.623Y-3.19
X5.69Y-3.39
X5.757Y-3.19
X5.824Y-3.39
X5.891Y-3.19
X5.958Y-3.39
X6.025Y-3.19
X6.655Y-3.19
X6.722Y-3.39
X6.789Y-3.19
X6.856Y-3.39
X6.923Y-3.19
X6.99Y-3.39
X7.057Y-3.19
X7.124Y-3.39
X7.191Y-3.19
X7.258Y-3.39
X7.325Y-3.19
T6
X3.64Y-3.28
X3.64Y-3.38
X3.64Y-3.48
X3.64Y-3.58
T7
X4.1416Y-4.2147
X4.1416Y-4.8053
X4.24Y-4.8053
X4.3384Y-4.2147
X4.3384Y-4.8053
T8
X6.51Y-2.65
X7.01Y-2.65
X7.29Y-3.7622
X7.29Y-3.9
X6.17Y-2.88
X6.17Y-3.38
X3.9666Y-2.66
X4.1044Y-2.66
X4.2422Y-2.66
X4.38Y-2.66
X6.87Y-3.8031
X6.87Y-4.
X5.9166Y-2.67
X6.0544Y-2.67
X6.1922Y-2.67
X6.33Y-2.67
X6.4Y-2.88
X6.4Y-3.38
X4.5566Y-2.66
X4.6944Y-2.66
X4.8322Y-2.66
X4.97Y-2.66
X5.25Y-2.65
X5.75Y-2.65
T9
X4.0038Y-4.51
X4.4762Y-4.51
T0
M30
