G04 #@! TF.GenerationSoftware,KiCad,Pcbnew,5.0.0-5.0.0*
G04 #@! TF.CreationDate,2018-10-25T16:06:32-04:00*
G04 #@! TF.ProjectId,l6203dualmotordrive,6C363230336475616C6D6F746F726472,rev?*
G04 #@! TF.SameCoordinates,Original*
G04 #@! TF.FileFunction,Soldermask,Top*
G04 #@! TF.FilePolarity,Negative*
%FSLAX46Y46*%
G04 Gerber Fmt 4.6, Leading zero omitted, Abs format (unit mm)*
G04 Created by KiCad (PCBNEW 5.0.0-5.0.0) date Thu Oct 25 16:06:32 2018*
%MOMM*%
%LPD*%
G01*
G04 APERTURE LIST*
%ADD10R,0.651600X1.601600*%
%ADD11R,1.601600X0.651600*%
%ADD12O,2.133600X3.149600*%
%ADD13O,5.181600X10.261600*%
%ADD14R,1.351600X1.101600*%
%ADD15R,1.701600X1.101600*%
%ADD16C,1.701600*%
%ADD17O,1.701600X1.701600*%
%ADD18R,1.101600X1.701600*%
%ADD19R,1.701600X1.701600*%
%ADD20R,1.101600X1.351600*%
%ADD21C,2.501600*%
%ADD22R,2.501600X2.501600*%
%ADD23O,2.501600X2.501600*%
%ADD24O,2.100580X2.100580*%
%ADD25R,2.100580X2.100580*%
%ADD26R,2.601600X1.101600*%
%ADD27C,0.889000*%
%ADD28C,1.092200*%
%ADD29C,2.476500*%
%ADD30R,1.401600X0.801600*%
%ADD31R,0.801600X1.401600*%
%ADD32R,1.001600X1.801600*%
%ADD33C,2.133600*%
%ADD34R,0.551600X1.551600*%
%ADD35O,1.801600X1.801600*%
%ADD36R,1.801600X1.801600*%
%ADD37O,1.901600X1.901600*%
%ADD38R,1.901600X1.901600*%
%ADD39R,1.321600X0.751600*%
%ADD40R,0.751600X1.161600*%
%ADD41R,0.701600X1.651600*%
%ADD42C,3.801600*%
%ADD43C,1.501600*%
%ADD44C,1.601600*%
G04 APERTURE END LIST*
D10*
G04 #@! TO.C,U1*
X132144000Y-105806000D03*
X132944000Y-105806000D03*
X133744000Y-105806000D03*
X134544000Y-105806000D03*
X135344000Y-105806000D03*
X136144000Y-105806000D03*
X136944000Y-105806000D03*
X137744000Y-105806000D03*
X138544000Y-105806000D03*
X139344000Y-105806000D03*
X140144000Y-105806000D03*
D11*
X141844000Y-107506000D03*
X141844000Y-108306000D03*
X141844000Y-109106000D03*
X141844000Y-109906000D03*
X141844000Y-110706000D03*
X141844000Y-111506000D03*
X141844000Y-112306000D03*
X141844000Y-113106000D03*
X141844000Y-113906000D03*
X141844000Y-114706000D03*
X141844000Y-115506000D03*
D10*
X140144000Y-117206000D03*
X139344000Y-117206000D03*
X138544000Y-117206000D03*
X137744000Y-117206000D03*
X136944000Y-117206000D03*
X136144000Y-117206000D03*
X135344000Y-117206000D03*
X134544000Y-117206000D03*
X133744000Y-117206000D03*
X132944000Y-117206000D03*
X132144000Y-117206000D03*
D11*
X130444000Y-115506000D03*
X130444000Y-114706000D03*
X130444000Y-113906000D03*
X130444000Y-113106000D03*
X130444000Y-112306000D03*
X130444000Y-111506000D03*
X130444000Y-110706000D03*
X130444000Y-109906000D03*
X130444000Y-109106000D03*
X130444000Y-108306000D03*
X130444000Y-107506000D03*
G04 #@! TD*
D12*
G04 #@! TO.C,SW1*
X107696000Y-122054000D03*
X110196000Y-122054000D03*
X105196000Y-122054000D03*
X110196000Y-107054000D03*
X105196000Y-107054000D03*
D13*
X101696000Y-114554000D03*
X113696000Y-114554000D03*
G04 #@! TD*
D14*
G04 #@! TO.C,C39*
X99568000Y-104172000D03*
X99568000Y-106172000D03*
G04 #@! TD*
D15*
G04 #@! TO.C,C1*
X167132000Y-86844000D03*
X167132000Y-83844000D03*
G04 #@! TD*
G04 #@! TO.C,C2*
X134112000Y-84098000D03*
X134112000Y-87098000D03*
G04 #@! TD*
D16*
G04 #@! TO.C,C3*
X167640000Y-75692000D03*
D17*
X182640000Y-75692000D03*
G04 #@! TD*
G04 #@! TO.C,C4*
X149112000Y-75438000D03*
D16*
X134112000Y-75438000D03*
G04 #@! TD*
D15*
G04 #@! TO.C,C5*
X186182000Y-77446000D03*
X186182000Y-74446000D03*
G04 #@! TD*
D18*
G04 #@! TO.C,C6*
X178792000Y-89154000D03*
X175792000Y-89154000D03*
G04 #@! TD*
D15*
G04 #@! TO.C,C7*
X152400000Y-77954000D03*
X152400000Y-74954000D03*
G04 #@! TD*
D18*
G04 #@! TO.C,C8*
X145518000Y-89408000D03*
X142518000Y-89408000D03*
G04 #@! TD*
D16*
G04 #@! TO.C,C9*
X126238000Y-110784000D03*
D19*
X126238000Y-113284000D03*
G04 #@! TD*
D14*
G04 #@! TO.C,C11*
X144018000Y-112252000D03*
X144018000Y-110252000D03*
G04 #@! TD*
D20*
G04 #@! TO.C,C12*
X136636000Y-103632000D03*
X134636000Y-103632000D03*
G04 #@! TD*
G04 #@! TO.C,C13*
X102092000Y-75184000D03*
X100092000Y-75184000D03*
G04 #@! TD*
G04 #@! TO.C,C14*
X107172000Y-77216000D03*
X105172000Y-77216000D03*
G04 #@! TD*
G04 #@! TO.C,C15*
X100092000Y-77216000D03*
X102092000Y-77216000D03*
G04 #@! TD*
G04 #@! TO.C,C16*
X115078000Y-75184000D03*
X117078000Y-75184000D03*
G04 #@! TD*
G04 #@! TO.C,C17*
X119650000Y-77216000D03*
X121650000Y-77216000D03*
G04 #@! TD*
G04 #@! TO.C,C18*
X115078000Y-77216000D03*
X117078000Y-77216000D03*
G04 #@! TD*
D14*
G04 #@! TO.C,C19*
X120396000Y-119110000D03*
X120396000Y-117110000D03*
G04 #@! TD*
G04 #@! TO.C,C20*
X123698000Y-117110000D03*
X123698000Y-119110000D03*
G04 #@! TD*
G04 #@! TO.C,C21*
X99060000Y-94250000D03*
X99060000Y-96250000D03*
G04 #@! TD*
D21*
G04 #@! TO.C,C22*
X174498000Y-96600000D03*
D22*
X174498000Y-101600000D03*
G04 #@! TD*
D16*
G04 #@! TO.C,C23*
X176824000Y-120650000D03*
D19*
X179324000Y-120650000D03*
G04 #@! TD*
D15*
G04 #@! TO.C,C24*
X161798000Y-105942000D03*
X161798000Y-108942000D03*
G04 #@! TD*
D19*
G04 #@! TO.C,C25*
X170688000Y-120650000D03*
D16*
X173188000Y-120650000D03*
G04 #@! TD*
D15*
G04 #@! TO.C,C26*
X109474000Y-99592000D03*
X109474000Y-102592000D03*
G04 #@! TD*
D18*
G04 #@! TO.C,C27*
X105894000Y-92456000D03*
X102894000Y-92456000D03*
G04 #@! TD*
G04 #@! TO.C,C28*
X105894000Y-94996000D03*
X102894000Y-94996000D03*
G04 #@! TD*
D15*
G04 #@! TO.C,C29*
X154686000Y-105942000D03*
X154686000Y-108942000D03*
G04 #@! TD*
G04 #@! TO.C,C30*
X102362000Y-102592000D03*
X102362000Y-99592000D03*
G04 #@! TD*
D19*
G04 #@! TO.C,C31*
X98806000Y-88646000D03*
D16*
X98806000Y-91146000D03*
G04 #@! TD*
D15*
G04 #@! TO.C,C32*
X144272000Y-122912000D03*
X144272000Y-119912000D03*
G04 #@! TD*
D20*
G04 #@! TO.C,C33*
X125714000Y-98044000D03*
X123714000Y-98044000D03*
G04 #@! TD*
G04 #@! TO.C,C34*
X124984000Y-100330000D03*
X126984000Y-100330000D03*
G04 #@! TD*
D15*
G04 #@! TO.C,C35*
X114300000Y-94210000D03*
X114300000Y-91210000D03*
G04 #@! TD*
D18*
G04 #@! TO.C,C36*
X113260000Y-88900000D03*
X110260000Y-88900000D03*
G04 #@! TD*
G04 #@! TO.C,C37*
X183666000Y-105410000D03*
X186666000Y-105410000D03*
G04 #@! TD*
D20*
G04 #@! TO.C,C38*
X95742000Y-109728000D03*
X93742000Y-109728000D03*
G04 #@! TD*
D14*
G04 #@! TO.C,C41*
X155702000Y-121142000D03*
X155702000Y-119142000D03*
G04 #@! TD*
G04 #@! TO.C,C42*
X117602000Y-113014000D03*
X117602000Y-111014000D03*
G04 #@! TD*
G04 #@! TO.C,C43*
X99568000Y-100314000D03*
X99568000Y-98314000D03*
G04 #@! TD*
G04 #@! TO.C,C44*
X120396000Y-91678000D03*
X120396000Y-89678000D03*
G04 #@! TD*
G04 #@! TO.C,C45*
X102870000Y-79518000D03*
X102870000Y-81518000D03*
G04 #@! TD*
G04 #@! TO.C,C46*
X117348000Y-81518000D03*
X117348000Y-79518000D03*
G04 #@! TD*
D23*
G04 #@! TO.C,D1*
X162560000Y-85852000D03*
D22*
X162560000Y-73152000D03*
G04 #@! TD*
G04 #@! TO.C,D2*
X165354000Y-67310000D03*
D23*
X178054000Y-67310000D03*
G04 #@! TD*
D22*
G04 #@! TO.C,D3*
X146050000Y-67310000D03*
D23*
X133350000Y-67310000D03*
G04 #@! TD*
G04 #@! TO.C,D4*
X156718000Y-85852000D03*
D22*
X156718000Y-73152000D03*
G04 #@! TD*
G04 #@! TO.C,j1*
X185166000Y-99060000D03*
D21*
X185166000Y-95560000D03*
G04 #@! TD*
D22*
G04 #@! TO.C,J1*
X160782000Y-67818000D03*
D21*
X157282000Y-67818000D03*
X150282000Y-67818000D03*
X153782000Y-67818000D03*
G04 #@! TD*
G04 #@! TO.C,J2*
X104252000Y-67564000D03*
X100752000Y-67564000D03*
X107752000Y-67564000D03*
D22*
X111252000Y-67564000D03*
G04 #@! TD*
G04 #@! TO.C,J3*
X126238000Y-67564000D03*
D21*
X122738000Y-67564000D03*
X115738000Y-67564000D03*
X119238000Y-67564000D03*
G04 #@! TD*
D24*
G04 #@! TO.C,J4*
X92456000Y-88392000D03*
X92456000Y-85852000D03*
D25*
X92456000Y-83312000D03*
D24*
X92456000Y-90932000D03*
G04 #@! TD*
D26*
G04 #@! TO.C,L1*
X137160000Y-119404000D03*
X137160000Y-122404000D03*
G04 #@! TD*
D27*
G04 #@! TO.C,P1*
X162560000Y-118491000D03*
X162560000Y-119761000D03*
X161290000Y-118491000D03*
X161290000Y-119761000D03*
X160020000Y-118491000D03*
X160020000Y-119761000D03*
D28*
X158750000Y-119126000D03*
X163830000Y-120142000D03*
X163830000Y-118110000D03*
D29*
X161925000Y-121666000D03*
X161925000Y-116586000D03*
X158750000Y-116586000D03*
X158750000Y-121666000D03*
G04 #@! TD*
D30*
G04 #@! TO.C,R7*
X141986000Y-120208000D03*
X141986000Y-122108000D03*
G04 #@! TD*
G04 #@! TO.C,R8*
X147574000Y-113218000D03*
X147574000Y-111318000D03*
G04 #@! TD*
G04 #@! TO.C,R9*
X149860000Y-111318000D03*
X149860000Y-113218000D03*
G04 #@! TD*
G04 #@! TO.C,R10*
X139954000Y-121346000D03*
X139954000Y-119446000D03*
G04 #@! TD*
D31*
G04 #@! TO.C,R11*
X101788000Y-73152000D03*
X99888000Y-73152000D03*
G04 #@! TD*
G04 #@! TO.C,R12*
X111948000Y-73152000D03*
X110048000Y-73152000D03*
G04 #@! TD*
G04 #@! TO.C,R13*
X114874000Y-73152000D03*
X116774000Y-73152000D03*
G04 #@! TD*
G04 #@! TO.C,R14*
X124526000Y-73152000D03*
X126426000Y-73152000D03*
G04 #@! TD*
G04 #@! TO.C,R15*
X105222000Y-73152000D03*
X107122000Y-73152000D03*
G04 #@! TD*
G04 #@! TO.C,R16*
X107122000Y-75184000D03*
X105222000Y-75184000D03*
G04 #@! TD*
G04 #@! TO.C,R17*
X119700000Y-73152000D03*
X121600000Y-73152000D03*
G04 #@! TD*
G04 #@! TO.C,R18*
X121600000Y-75184000D03*
X119700000Y-75184000D03*
G04 #@! TD*
D30*
G04 #@! TO.C,R19*
X100838000Y-79568000D03*
X100838000Y-81468000D03*
G04 #@! TD*
G04 #@! TO.C,R20*
X115316000Y-79568000D03*
X115316000Y-81468000D03*
G04 #@! TD*
D31*
G04 #@! TO.C,R21*
X108778000Y-84582000D03*
X110678000Y-84582000D03*
G04 #@! TD*
G04 #@! TO.C,R22*
X123256000Y-84582000D03*
X125156000Y-84582000D03*
G04 #@! TD*
G04 #@! TO.C,R23*
X110048000Y-77216000D03*
X111948000Y-77216000D03*
G04 #@! TD*
G04 #@! TO.C,R24*
X111948000Y-75184000D03*
X110048000Y-75184000D03*
G04 #@! TD*
G04 #@! TO.C,R25*
X126426000Y-77216000D03*
X124526000Y-77216000D03*
G04 #@! TD*
G04 #@! TO.C,R26*
X124526000Y-75184000D03*
X126426000Y-75184000D03*
G04 #@! TD*
G04 #@! TO.C,R27*
X108778000Y-80010000D03*
X110678000Y-80010000D03*
G04 #@! TD*
G04 #@! TO.C,R28*
X123256000Y-80010000D03*
X125156000Y-80010000D03*
G04 #@! TD*
D30*
G04 #@! TO.C,R29*
X102870000Y-85024000D03*
X102870000Y-83124000D03*
G04 #@! TD*
G04 #@! TO.C,R30*
X117348000Y-83124000D03*
X117348000Y-85024000D03*
G04 #@! TD*
G04 #@! TO.C,R31*
X120396000Y-123632000D03*
X120396000Y-121732000D03*
G04 #@! TD*
G04 #@! TO.C,R32*
X123698000Y-121732000D03*
X123698000Y-123632000D03*
G04 #@! TD*
G04 #@! TO.C,R33*
X113792000Y-123632000D03*
X113792000Y-121732000D03*
G04 #@! TD*
G04 #@! TO.C,R34*
X117028000Y-120782000D03*
X117028000Y-122682000D03*
G04 #@! TD*
G04 #@! TO.C,R35*
X119634000Y-111064000D03*
X119634000Y-112964000D03*
G04 #@! TD*
D32*
G04 #@! TO.C,R36*
X95938000Y-94488000D03*
X93038000Y-94488000D03*
G04 #@! TD*
G04 #@! TO.C,R37*
X93038000Y-98298000D03*
X95938000Y-98298000D03*
G04 #@! TD*
G04 #@! TO.C,R38*
X186616000Y-108966000D03*
X183716000Y-108966000D03*
G04 #@! TD*
G04 #@! TO.C,R39*
X178128000Y-108966000D03*
X181028000Y-108966000D03*
G04 #@! TD*
D30*
G04 #@! TO.C,R40*
X100838000Y-83124000D03*
X100838000Y-85024000D03*
G04 #@! TD*
G04 #@! TO.C,R41*
X115316000Y-85024000D03*
X115316000Y-83124000D03*
G04 #@! TD*
D31*
G04 #@! TO.C,R42*
X110678000Y-82296000D03*
X108778000Y-82296000D03*
G04 #@! TD*
G04 #@! TO.C,R43*
X123256000Y-82296000D03*
X125156000Y-82296000D03*
G04 #@! TD*
G04 #@! TO.C,R44*
X112202000Y-93472000D03*
X110302000Y-93472000D03*
G04 #@! TD*
G04 #@! TO.C,R45*
X112202000Y-91186000D03*
X110302000Y-91186000D03*
G04 #@! TD*
D33*
G04 #@! TO.C,U2*
X169037000Y-81026000D03*
X170738800Y-86106000D03*
X172440600Y-81026000D03*
X174142400Y-86106000D03*
X175844200Y-81026000D03*
X177546000Y-86106000D03*
X179247800Y-81026000D03*
X180949600Y-86106000D03*
X182651400Y-81026000D03*
X184353200Y-86106000D03*
X186055000Y-81026000D03*
G04 #@! TD*
G04 #@! TO.C,U3*
X153035000Y-81026000D03*
X151333200Y-86106000D03*
X149631400Y-81026000D03*
X147929600Y-86106000D03*
X146227800Y-81026000D03*
X144526000Y-86106000D03*
X142824200Y-81026000D03*
X141122400Y-86106000D03*
X139420600Y-81026000D03*
X137718800Y-86106000D03*
X136017000Y-81026000D03*
G04 #@! TD*
D34*
G04 #@! TO.C,U4*
X106893000Y-84242000D03*
X106243000Y-84242000D03*
X105593000Y-84242000D03*
X104943000Y-84242000D03*
X104943000Y-79842000D03*
X105593000Y-79842000D03*
X106243000Y-79842000D03*
X106893000Y-79842000D03*
G04 #@! TD*
G04 #@! TO.C,U5*
X121371000Y-79842000D03*
X120721000Y-79842000D03*
X120071000Y-79842000D03*
X119421000Y-79842000D03*
X119421000Y-84242000D03*
X120071000Y-84242000D03*
X120721000Y-84242000D03*
X121371000Y-84242000D03*
G04 #@! TD*
D35*
G04 #@! TO.C,U6*
X142240000Y-93980000D03*
X139700000Y-93980000D03*
X137160000Y-93980000D03*
X134620000Y-93980000D03*
X132080000Y-93980000D03*
X129540000Y-93980000D03*
D36*
X127000000Y-93980000D03*
G04 #@! TD*
D35*
G04 #@! TO.C,U7*
X138176000Y-97790000D03*
X135636000Y-97790000D03*
X133096000Y-97790000D03*
D36*
X130556000Y-97790000D03*
G04 #@! TD*
D37*
G04 #@! TO.C,U9*
X175768000Y-112522000D03*
X178308000Y-112522000D03*
D38*
X180848000Y-112522000D03*
G04 #@! TD*
D39*
G04 #@! TO.C,U10*
X107228000Y-102550000D03*
X107228000Y-101600000D03*
X107228000Y-100650000D03*
X104608000Y-100650000D03*
X104608000Y-102550000D03*
G04 #@! TD*
G04 #@! TO.C,U11*
X156932000Y-108900000D03*
X156932000Y-107000000D03*
X159552000Y-107000000D03*
X159552000Y-107950000D03*
X159552000Y-108900000D03*
G04 #@! TD*
D40*
G04 #@! TO.C,U12*
X103190000Y-90000000D03*
X104140000Y-90000000D03*
X105090000Y-90000000D03*
X105090000Y-87800000D03*
X103190000Y-87800000D03*
G04 #@! TD*
G04 #@! TO.C,U13*
X118552000Y-91778000D03*
X116652000Y-91778000D03*
X116652000Y-89578000D03*
X117602000Y-89578000D03*
X118552000Y-89578000D03*
G04 #@! TD*
D41*
G04 #@! TO.C,U8*
X92837000Y-101948000D03*
X94107000Y-101948000D03*
X95377000Y-101948000D03*
X96647000Y-101948000D03*
X96647000Y-107348000D03*
X95377000Y-107348000D03*
X94107000Y-107348000D03*
X92837000Y-107348000D03*
G04 #@! TD*
D42*
G04 #@! TO.C,REF\002A\002A*
X92964000Y-66802000D03*
G04 #@! TD*
G04 #@! TO.C,REF\002A\002A*
X92964000Y-121666000D03*
G04 #@! TD*
G04 #@! TO.C,REF\002A\002A*
X185928000Y-121666000D03*
G04 #@! TD*
G04 #@! TO.C,REF\002A\002A*
X185928000Y-66802000D03*
G04 #@! TD*
D14*
G04 #@! TO.C,C10*
X134620000Y-119396000D03*
X134620000Y-121396000D03*
G04 #@! TD*
D43*
G04 #@! TO.C,REF\002A\002A*
X169164000Y-113792000D03*
X169164000Y-111252000D03*
G04 #@! TD*
G04 #@! TO.C,REF\002A\002A*
X92456000Y-114554000D03*
X94996000Y-114554000D03*
G04 #@! TD*
D44*
G04 #@! TO.C,6V*
X167386000Y-118872000D03*
G04 #@! TD*
G04 #@! TO.C,DC+*
X171704000Y-108204000D03*
G04 #@! TD*
G04 #@! TO.C,3.3V*
X155956000Y-111506000D03*
G04 #@! TD*
G04 #@! TO.C,5V*
X97536000Y-109220000D03*
G04 #@! TD*
G04 #@! TO.C,STRAIN+*
X97028000Y-80518000D03*
G04 #@! TD*
G04 #@! TO.C,REF\002A\002A*
X108458000Y-87884000D03*
G04 #@! TD*
M02*
